<svg height="38" viewBox="0 0 141 38" width="141" xmlns="http://www.w3.org/2000/svg"><g fill="none" fill-rule="evenodd" transform="translate(.328125)"><g fill="#fff"><path d="m62.2517292 14.4982667c-2.2824498 0-4.3296658.9643555-5.7691944 2.4970222v-9.53377779h-2.1205134v14.85208889c0 4.3159556 3.5327686 7.8144889 7.8897078 7.8144889 4.3552346 0 7.8880032-3.4985333 7.8880032-7.8144889 0-4.3168-3.5327686-7.8153333-7.8880032-7.8153333zm0 13.5128c-3.1756564 0-5.7495916-2.5527556-5.7495916-5.6974667 0-3.1464 2.5739352-5.6991556 5.7495916-5.6991556 3.1739518 0 5.7487392 2.5527556 5.7487392 5.6991556 0 3.1447111-2.5747874 5.6974667-5.7487392 5.6974667z"/><path d="m.20455114 22.3136c0 4.3159556 3.53276858 7.8144889 7.88800319 7.8144889 4.35693917 0 7.88885547-3.4985333 7.88885547-7.8144889v-14.85208889h-2.1196611v9.53377779c-1.4395286-1.5326667-3.4875969-2.4970222-5.76919437-2.4970222-4.35523461 0-7.88800319 3.4985333-7.88800319 7.8153333zm2.13841167 0c0-3.1464 2.57563972-5.6991556 5.74959152-5.6991556 3.17565637 0 5.75044387 2.5527556 5.75044387 5.6991556 0 3.1447111-2.5747875 5.6974667-5.75044387 5.6974667-3.1739518 0-5.74959152-2.5527556-5.74959152-5.6974667z"/><path d="m19.8908934 19.4686667c0-1.3190223-.0622176-2.4455111-.1278444-4.5752h2.0548866v2.7216444h.0630699c.6000167-1.5630667 2.1520484-3.0991111 4.7438818-3.0991111.6034258 0 1.1088376.0641778 1.5494748.1891556l-.4091022 2.0351111c-.2548367-.0962667-.632404-.1545334-1.2025903-.1545334-3.1628719 0-4.5870592 3.1607556-4.5870592 5.1359111v7.8322223h-2.084717z"/><path d="m32.0548677 12.2115111c-.7568392 0-1.5170876-.6257333-1.5170876-1.5039555 0-.87568893.7602484-1.5039556 1.5170876-1.5039556.7602484 0 1.521349.62826667 1.521349 1.5039556 0 .8782222-.7611006 1.5039555-1.521349 1.5039555zm-1.0406539 2.6819556h2.084717v14.6604h-2.084717z"/><path d="m38.8255103 22.7864889c.253132 2.9445778 2.4963761 5.2617333 5.4393556 5.2617333 2.2117092 0 3.9197112-1.2168444 4.7455864-2.5350222l1.6099879 1.3181778c-1.7378324 2.1904889-3.9222681 3.0999555-6.3555743 3.0999555-4.3969971 0-7.6536217-3.2865777-7.6536217-7.7064 0-4.4206666 3.2566246-7.7089333 7.4644119-7.7089333 4.4873406.0287111 7.0808785 3.3195111 7.0808785 7.3297778v.9407111zm10.0570975-1.6914222c0-2.7900445-1.8034592-4.7001778-4.8069517-4.7001778-2.7239393 0-5.1870759 2.2901333-5.1870759 4.7001778z"/><path d="m74.4702504 12.2115111c-.7576915 0-1.5162353-.6257333-1.5162353-1.5039555 0-.87568893.7585438-1.5039556 1.5162353-1.5039556.7628053 0 1.5170876.62826667 1.5170876 1.5039556 0 .8782222-.7542823 1.5039555-1.5170876 1.5039555zm-1.0423585 2.6819556h2.0855693v14.6604h-2.0855693z"/><path d="m88.4129672 16.7715111h-4.2691527v8.6454222c0 2.1938667.8548533 2.6312889 2.1503439 2.6312889.7287134 0 1.5196444-.2170222 2.1503438-.5598666l.0963095 1.9109777c-.7585438.3411556-1.7727765.532-2.815135.532-1.5818622 0-3.6691361-.6890666-3.6691361-3.9182222v-9.2416h-3.2745227v-1.8780444h3.2745227v-5.15702226h2.0872739v5.15702226h4.2691527z"/></g><path d="m136.090428 12.9326667c-6.490237-7.5898667-15.138489-14.28462226-22.785292-11.83911114-6.15358 1.9684-11.355145 12.63795554-11.9509 22.57791114-1.023608 17.0907111 13.195253 14.8048 22.786996 11.8399555 9.590039-2.9656889 23.513153-9.0549778 11.949196-22.5787555" fill="#97c93c"/><path d="m122.910516 14.3395111c-.444898-.1030222-.900025-.1883111-1.360265-.2558667-6.950477-10.5496444-10.669046 5.6189334-3.664022 9.5937334-11.265654-6.3949778-1.990112-29.88151113 5.024287-9.3378667z" fill="#fff"/><path d="m122.910516 14.3395111c-.444898-.1030222-.900025-.1883111-1.360265-.2558667-6.950477-10.5496444-10.669046 5.6189334-3.664022 9.5937334-11.265654-6.3949778-1.990112-29.88151113 5.024287-9.3378667z" stroke="#fff" stroke-linecap="round" stroke-linejoin="round" stroke-width="1.228"/><path d="m111.716455 20.5698222c.128697.6096889.313645 1.1602667.559959 1.7437778-3.486744 6.2387556.705702 7.0832 4.632231 5.3048 3.045255-1.3781333 6.202161-4.3548 6.291652-7.5484889-.364783 13.0238667-24.2563555 16.4354222-11.483842.4999111z" fill="#fff"/><path d="m111.716455 20.5698222c.128697.6096889.313645 1.1602667.559959 1.7437778-3.486744 6.2387556.705702 7.0832 4.632231 5.3048 3.045255-1.3781333 6.202161-4.3548 6.291652-7.5484889-.364783 13.0238667-24.2563555 16.4354222-11.483842.4999111z" stroke="#fff" stroke-linecap="round" stroke-linejoin="round" stroke-width="1.228"/><path d="m123.853156 26.6109778c.438933-.3673334.782408-.798 1.173612-1.2252889 13.420259-2.5206667-.619619-10.4288889-7.497651-7.9470667 11.895501-4.2923111 27.939128 11.0808 6.324039 9.1723556z" fill="#fff"/><path d="m123.853156 26.6109778c.438933-.3673334.782408-.798 1.173612-1.2252889 13.420259-2.5206667-.619619-10.4288889-7.497651-7.9470667 11.895501-4.2923111 27.939128 11.0808 6.324039 9.1723556z" stroke="#fff" stroke-linecap="round" stroke-linejoin="round" stroke-width="1.228"/></g></svg>