<svg height="54" viewBox="0 0 336 54" width="336" xmlns="http://www.w3.org/2000/svg" xmlns:xlink="http://www.w3.org/1999/xlink"><linearGradient id="a" x1="14.644444%" x2="85.344444%" y1="14.644444%" y2="85.355556%"><stop offset="0" stop-color="#8bf17f"/><stop offset="1" stop-color="#26e88a"/></linearGradient><g fill="none" fill-rule="evenodd" transform="translate(0 -1)"><g fill-rule="nonzero" transform="translate(0 1)"><ellipse cx="19.884194" cy="51.71371" fill="#e8e8e8" rx="12.193548" ry="2.177419"/><circle cx="19.884194" cy="19.705645" fill="url(#a)" r="19.596774"/><g fill="#202d3a"><path d="m56.4909677 12.3808065v6.1925806h10.8391936v4.3548387h-10.8391936v8.5354839h-5.4217742v-23.42903228h17.6980646v4.35483868z"/><path d="m80.3293548 30.2835484c-1.8957815-.9981869-3.4817659-2.4968142-4.5856451-4.3330645-2.2062299-3.8445172-2.2062299-8.571128 0-12.4156452 1.1027466-1.8360581 2.6891197-3.3335461 4.5856451-4.32870967 4.12426-2.10185721 9.0055787-2.10185721 13.1298387 0 3.8937966 2.07441107 6.3264946 6.12681297 6.3264946 10.53870967 0 4.4118968-2.432698 8.4642986-6.3264946 10.5387097-4.1256192 2.096189-9.0042194 2.096189-13.1298387 0zm10.3209678-3.9977419c1.1001371-.6284107 2.0045806-1.5494357 2.6129032-2.6608065 1.2716491-2.4320289 1.2716491-5.3326485 0-7.7646774-.6084134-1.1101789-1.5129317-2.0297726-2.6129032-2.6564516-2.3364011-1.271652-5.1582763-1.271652-7.4946774 0-1.0999715.626679-2.0044899 1.5462727-2.6129033 2.6564516-1.2716491 2.4320289-1.2716491 5.3326485 0 7.7646774.6083227 1.1113708 1.5127662 2.0323958 2.6129033 2.6608065 2.3364011 1.2716519 5.1582763 1.2716519 7.4946774 0z"/><path d="m122.066129 31.455-4.515968-6.5322581h-4.98629v6.5322581h-5.434839v-23.42032258h10.13371c1.854785-.04427566 3.697547.30913091 5.404355 1.03645161 1.438487.61696222 2.665843 1.64001137 3.531774 2.94387097.855593 1.3545516 1.29192 2.9316925 1.254194 4.5333871.129879 3.2402525-1.801521 6.2089499-4.816452 7.4032258l5.251935 7.5295161zm-1.371774-17.955c-.849194-.7054839-2.085968-1.053871-3.714678-1.053871h-4.415806v8.1609678h4.415806c1.62871 0 2.865484-.352742 3.714678-1.0669355.812653-.7947262 1.270734-1.8834214 1.270734-3.0200807 0-1.1366592-.458081-2.2253544-1.270734-3.0200806z"/><path d="m145.987258 23.1546774v8.3003226h-5.417419v-8.3743548l-9.05371-15.04596778h5.752742l6.257903 10.40370968 6.253549-10.40370968h5.321612z"/><path d="m174.694355 26.433871h-10.887097l-2.072903 5.021129h-5.539355l10.451613-23.42032258h5.352097l10.469032 23.42032258h-5.700484zm-1.707097-4.1153226-3.714677-8.9666129-3.710323 8.9666129z"/><path d="m203.16629 31.455-4.515967-6.5322581h-4.986291v6.5322581h-5.421774v-23.42032258h10.138065c1.862088-.04740214 3.712606.30606757 5.426129 1.03645161 1.438486.61696222 2.665843 1.64001137 3.531774 2.94387097.841832 1.3588378 1.264443 2.935677 1.215 4.5333871.129879 3.2402525-1.801521 6.2089499-4.816452 7.4032258l5.251936 7.5295161zm-1.371774-17.955c-.870968-.7054839-2.085968-1.053871-3.714677-1.053871h-4.415807v8.1609678h4.415807c1.628709 0 2.865484-.352742 3.714677-1.0669355.812653-.7947262 1.270734-1.8834214 1.270734-3.0200807 0-1.1366592-.458081-2.2253544-1.270734-3.0200806z"/><path d="m216.182903 8.03467742h10.638871c2.329744-.04715565 4.638256.45093417 6.741291 1.45451613 1.876955.90363535 3.456071 2.32559545 4.550806 4.09790325 2.160398 3.8193744 2.160398 8.4917546 0 12.311129-1.093601 1.7732538-2.673029 3.1954942-4.550806 4.0979032-2.102671 1.005084-4.4112 1.5046687-6.741291 1.458871h-10.638871zm10.368871 18.96532258c2.342903 0 4.211129-.6532258 5.604678-1.9596774 1.393548-1.3064516 2.090322-3.0730645 2.090322-5.2998387 0-2.2296774-.696774-3.997742-2.090322-5.3041936-1.393549-1.3064516-3.261775-1.9596774-5.604678-1.9596774h-4.951451v14.5233871z"/></g></g><path d="m252.967 32.279c-.723337 0-1.239998-.134332-1.55-.403s-.465-.5993314-.465-.992c0-.1240006.010333-.2738325.031-.4495s.051666-.3564991.093-.5425c.103334-.5580028.351331-1.0023317.744-1.333s.981663-.496 1.767-.496c.723337 0 1.239998.134332 1.55.403s.465.5993314.465.992c0 .1240006-.010333.2738325-.031.4495s-.051666.3564991-.093.5425c-.103334.5580028-.351331 1.0023317-.744 1.333s-.981663.496-1.767.496zm18.042.093c-.723337 0-1.286498-.1963314-1.6895-.589s-.6045-.9609963-.6045-1.705c0-.1446674.005167-.3409988.0155-.589s.036166-.4546658.0775-.62l1.86-10.788h-4.619l.341-2.077h3.255c.537336 0 .935165-.1084989 1.1935-.3255s.439166-.594164.5425-1.1315l.713-4.185h2.294l-.961 5.642h6.603l-.341 2.077h-6.603l-1.984 11.842.62.372 6.975-4.65 1.209 1.55-3.503 2.48c-.723337.5166693-1.348497.9454983-1.8755 1.2865s-1.002331.6148323-1.426.8215-.800832.3564995-1.1315.4495-.650998.1395-.961.1395zm19.778 0c-2.025343 0-3.585661-.563161-4.681-1.6895s-1.643-2.8468218-1.643-5.1615c0-1.4466739.216998-2.774494.651-3.9835s1.038496-2.2526623 1.8135-3.131 1.704995-1.5603309 2.79-2.046 2.26816-.7285 3.5495-.7285c.785337 0 1.508663.0929991 2.17.279s1.234831.4598315 1.7205.8215.862832.811164 1.1315 1.3485.403 1.1573298.403 1.86c0 .5580028-.129165 1.1366637-.3875 1.736s-.795663 1.1573307-1.612 1.674c-.816337.5166692-1.994326.9506649-3.534 1.302s-3.580487.5579997-6.1225.62c-.020667.1653342-.031.315166-.031.4495v.2635c0 .5580028.051666 1.0953307.155 1.612s.299665.976498.589 1.3795.692331.7233321 1.209.961 1.198662.3565 2.046.3565c.57867 0 1.100498-.067166 1.5655-.2015s.909331-.3409986 1.333-.62.836998-.6406644 1.24-1.085.831831-.9868301 1.2865-1.6275l1.705 1.054c-.909338 1.4880074-1.937494 2.6194961-3.0845 3.3945s-2.567825 1.1625-4.2625 1.1625zm2.263-14.725c-1.612008 0-2.924328.4856618-3.937 1.457s-1.632666 2.3663242-1.86 4.185l-.031.31c1.942676-.0620003 3.508161-.2118321 4.6965-.4495s2.097664-.5218317 2.728-.8525 1.048832-.6923314 1.2555-1.085.31-.7853314.31-1.178c0-.3306683-.056833-.6406652-.1705-.93s-.294499-.5424989-.5425-.7595-.573498-.3874994-.9765-.5115-.89383-.186-1.4725-.186zm16.12 14.725c-.992005 0-1.865163-.1653317-2.6195-.496s-1.384664-.7904971-1.891-1.3795-.888665-1.3019958-1.147-2.139-.3875-1.751495-.3875-2.7435c0-1.529341.216998-2.9088272.651-4.1385s1.022996-2.2784957 1.767-3.1465 1.617162-1.5344977 2.6195-1.9995 2.071828-.6975 3.2085-.6975c.847338 0 1.586164.1033323 2.2165.31s1.172831.4804983 1.6275.8215.821499.7491643 1.1005 1.2245.490833.9713307.6355 1.488l-2.077.806c-.310002-.992005-.76983-1.6636649-1.3795-2.015s-1.410495-.527-2.4025-.527c-1.364007 0-2.474829.4443289-3.3325 1.333s-1.431165 2.1699916-1.7205 3.844l-.31 1.86c-.062.3720019-.103333.6613323-.124.868s-.031.4133323-.031.62c0 1.3640068.356496 2.3714967 1.0695 3.0225s1.658494.9765 2.8365.9765c.351335 0 .707832-.0413329 1.0695-.124s.754331-.258332 1.178-.527.883498-.6613308 1.3795-1.178c.496002-.5166693 1.06433-1.2089957 1.705-2.077l1.736 1.023c-.496002.806004-1.002331 1.5241635-1.519 2.1545s-1.069497 1.1521646-1.6585 1.5655-1.229663.7284989-1.922.9455-1.451829.3255-2.2785.3255zm15.903-23.312h2.418l-1.798 10.726h.124c.599336-1.2813397 1.312329-2.2939963 2.139-3.038s1.890993-1.116 3.193-1.116c1.34334 0 2.402496.402996 3.1775 1.209s1.1625 1.9426593 1.1625 3.41c0 .3100016-.0155.6458315-.0465 1.0075s-.0775.7181649-.1395 1.0695l-1.612 9.672h-2.418l1.581-9.455c.062-.3720019.103333-.7078318.124-1.0075s.031-.5321658.031-.6975c0-.9506714-.216998-1.6998306-.651-2.2475s-1.105662-.8215-2.015-.8215c-.70267 0-1.327831.1549985-1.8755.465s-1.048831.733664-1.5035 1.271c-.082667.1033338-.211832.2634989-.3875.4805s-.356499.4856651-.5425.806-.361666.681998-.527 1.085-.289333.8318311-.372 1.2865l-1.488 8.835h-2.418z" fill="#202d3a"/></g></svg>