<svg xmlns="http://www.w3.org/2000/svg" viewBox="0 0 908 125.333">
  <defs>
    <clipPath id="a" clipPathUnits="userSpaceOnUse">
      <path d="M-187.562 72.463h681v-94h-681Z"/>
    </clipPath>
    <clipPath id="b" clipPathUnits="userSpaceOnUse">
      <path d="M463.252 91.012c-.423-.36-1.194-.751-2.313-1.171-1.118-.422-2.63-.781-4.535-1.082-1.904-.301-4.277-.45-7.12-.45V81.46c.666.06 1.648.105 2.948.135 1.301.031 2.435.076 3.401.136a85.533 85.533 0 0 1-.272-4.101 89.403 89.403 0 0 1-.091-3.739V36.855c0-1.561-.09-2.958-.271-4.19-.181-1.232-.65-2.177-1.406-2.838-.756-.662-1.98-.992-3.673-.992v-5.857h23.762v6.849c-.604 0-1.482-.015-2.63-.045a36.348 36.348 0 0 1-3.265-.226c.12 1.382.211 2.839.272 4.37.061 1.532.09 2.719.09 3.56v20.365c1.028.901 2.283 1.682 3.764 2.343 1.482.66 2.978.992 4.49.992 2.539 0 4.399-.947 5.578-2.839 1.179-1.893 1.768-4.792 1.768-8.696l.091-12.796c0-1.561-.106-2.958-.318-4.19-.211-1.232-.695-2.177-1.45-2.838-.757-.662-1.981-.992-3.673-.992v-5.857h23.852v6.849c-.665 0-1.572-.015-2.72-.045a32.85 32.85 0 0 1-3.175-.226c.121 1.382.212 2.839.272 4.37.06 1.532.091 2.719.091 3.56v12.075c-.06 6.969-1.239 12.03-3.537 15.183-2.298 3.155-6.228 4.731-11.791 4.731-1.21 0-2.63-.224-4.262-.675a29.17 29.17 0 0 1-4.807-1.802c-1.573-.752-2.963-1.608-4.173-2.569v26.583zm-159.97 0c-.424-.36-1.194-.751-2.313-1.171-1.119-.422-2.631-.781-4.535-1.082-1.905-.301-4.278-.45-7.12-.45V81.46c.665 0 1.663.031 2.993.09 1.331.06 2.479.121 3.446.181a83.5 83.5 0 0 1-.271-4.326 99.042 99.042 0 0 1-.091-3.604v-5.947c-1.149.42-2.374.795-3.673 1.126-1.3.33-2.767.495-4.399.495-4.474 0-8.405-1.081-11.79-3.244-3.386-2.163-6.017-5.136-7.891-8.921-1.874-3.784-2.811-8.11-2.811-12.975 0-4.626.77-8.651 2.312-12.075 1.542-3.425 3.689-6.068 6.439-7.93 2.752-1.862 5.941-2.794 9.569-2.794 2.298 0 4.505.421 6.621 1.262 2.116.841 4.172 2.283 6.167 4.325.121-.66.227-1.352.318-2.072.09-.721.166-1.412.227-2.073h17.231v6.849c-.604 0-1.48-.015-2.63-.045a36.4 36.4 0 0 1-3.265-.226c.122 1.382.212 2.839.273 4.37.06 1.532.09 2.719.09 3.56v53.526zm-21.087-58.887c-1.421 1.592-2.449 3.618-3.084 6.082a29.842 29.842 0 0 0-.953 7.479c0 2.824.318 5.527.953 8.11.635 2.584 1.738 4.716 3.311 6.398 1.571 1.682 3.748 2.553 6.529 2.613 1.27 0 2.509-.165 3.719-.495 1.21-.331 2.116-.737 2.721-1.217V34.062c-.786-1.261-1.844-2.298-3.175-3.109a8.205 8.205 0 0 0-4.353-1.216c-2.358 0-4.247.796-5.668 2.388M173.776 84.523c-3.99-1.981-7.3-4.595-9.931-7.838-2.63-3.245-4.595-6.804-5.895-10.679-1.3-3.874-1.95-7.704-1.95-11.489 0-3.905.575-7.81 1.723-11.715a32.231 32.231 0 0 1 5.442-10.677c2.479-3.214 5.729-5.783 9.75-7.705 4.021-1.923 8.903-2.884 14.647-2.884 5.382 0 10.067 1.006 14.058 3.02 3.99 2.012 7.301 4.655 9.931 7.929 2.63 3.274 4.596 6.833 5.895 10.678 1.301 3.845 1.951 7.629 1.951 11.354 0 3.785-.62 7.599-1.86 11.444-1.239 3.845-3.129 7.404-5.668 10.678-2.54 3.274-5.805 5.903-9.796 7.884-3.99 1.983-8.737 2.974-14.238 2.974-5.382 0-10.068-.991-14.059-2.974m6.077-53.795c-2.358 1.742-4.232 4.025-5.623 6.848a36.403 36.403 0 0 0-3.038 9.012c-.636 3.183-.952 6.187-.952 9.01 0 2.763.271 5.617.816 8.561.543 2.943 1.451 5.662 2.72 8.155 1.27 2.493 2.963 4.535 5.079 6.127 2.117 1.592 4.716 2.419 7.801 2.479 3.143.059 5.879-.586 8.207-1.938 2.328-1.352 4.248-3.274 5.76-5.767 1.511-2.493 2.629-5.451 3.355-8.876.726-3.424 1.089-7.209 1.089-11.354 0-2.763-.273-5.602-.816-8.515-.545-2.914-1.452-5.603-2.721-8.065-1.27-2.463-2.963-4.46-5.08-5.992-2.116-1.533-4.746-2.299-7.89-2.299-3.446 0-6.349.871-8.707 2.614m476.886 37.666c-2.086-.721-4.188-1.982-6.304-3.785-.06.541-.12 1.247-.181 2.118a17.703 17.703 0 0 1-.272 2.208h-4.444c-.423-.36-1.195-.751-2.313-1.171-1.118-.422-2.63-.782-4.535-1.082-1.904-.301-4.277-.451-7.12-.451v-6.848c.666.06 1.664.105 2.994.135 1.33.031 2.478.076 3.446.135a85.538 85.538 0 0 1-.272-4.01 83.153 83.153 0 0 1-.091-3.649V13.877c0-1.562-.106-2.958-.317-4.19-.212-1.231-.695-2.177-1.451-2.839-.756-.661-1.98-.991-3.673-.991V0h23.762v6.848c-.605 0-1.482-.014-2.63-.045a32.844 32.844 0 0 1-3.174-.225c.12 1.382.196 2.839.226 4.371.03 1.531.045 2.718.045 3.559v8.651a37.65 37.65 0 0 1 3.673-1.127c1.301-.33 2.767-.496 4.4-.496 4.535 0 8.479 1.082 11.835 3.245 3.356 2.162 5.971 5.151 7.846 8.965 1.873 3.816 2.811 8.126 2.811 12.932 0 4.625-.771 8.65-2.313 12.074-1.541 3.424-3.688 6.068-6.439 7.93-2.752 1.862-5.941 2.793-9.569 2.793-1.874 0-3.854-.36-5.94-1.081m-3.492-39.649c-1.21.361-2.147.752-2.812 1.172V57.4a9.236 9.236 0 0 0 3.175 2.839c1.27.691 2.66 1.066 4.172 1.127 2.358.06 4.262-.676 5.713-2.208 1.452-1.532 2.509-3.53 3.175-5.992.665-2.464.998-5.077.998-7.84 0-2.944-.303-5.707-.908-8.29-.604-2.584-1.677-4.671-3.219-6.263-1.541-1.592-3.703-2.418-6.484-2.478-.191-.009-.38-.013-.568-.013-1.125 0-2.206.155-3.242.463m-51.466 39.109a27.886 27.886 0 0 1-7.21-4.326c-1.089 1.982-2.539 3.47-4.354 4.461-1.813.991-4.111 1.486-6.892 1.486-2.117 0-4.369-.45-6.757-1.351a26.303 26.303 0 0 1-6.666-3.695c-.061.6-.106 1.352-.136 2.253-.031.901-.107 1.652-.227 2.253h-4.444c-.423-.36-1.195-.751-2.313-1.171-1.118-.422-2.645-.782-4.58-1.082-1.935-.301-4.293-.451-7.074-.451v-6.848c.665.06 1.648.105 2.947.135 1.301.031 2.434.076 3.401.135a88.337 88.337 0 0 1-.272-4.01 83.153 83.153 0 0 1-.091-3.649V36.855c0-1.561-.105-2.958-.317-4.19-.212-1.232-.68-2.177-1.406-2.838-.725-.662-1.934-.992-3.627-.992v-5.857h23.308v6.849a88.48 88.48 0 0 1-2.449-.045 31.823 31.823 0 0 1-2.992-.226c.12 1.382.211 2.839.272 4.37.06 1.532.09 2.719.09 3.56v20.365a16.862 16.862 0 0 0 3.492 2.343c1.3.66 2.706.992 4.218.992 2.056-.061 3.657-.812 4.807-2.254 1.148-1.441 1.722-4.115 1.722-8.019l.091-14.058c0-1.561-.091-2.958-.272-4.19-.181-1.232-.62-2.177-1.314-2.838-.696-.662-1.83-.992-3.402-.992v-5.857h23.4v6.849c-.666 0-1.573-.015-2.721-.045a32.827 32.827 0 0 1-3.174-.226c.12 1.382.211 2.839.271 4.37.061 1.532.091 2.719.091 3.56v12.075c0 1.622-.06 3.154-.182 4.596a24.688 24.688 0 0 1-.634 3.964 17.535 17.535 0 0 0 3.673 2.163c1.361.601 2.827.871 4.399.811 2.056-.06 3.704-.841 4.943-2.343 1.239-1.501 1.889-4.205 1.95-8.11V36.855c0-1.561-.091-2.958-.272-4.19-.181-1.232-.59-2.177-1.225-2.838-.635-.662-1.647-.992-3.038-.992v-5.857h22.946v6.849c-.604 0-1.496-.015-2.675-.045a33.141 33.141 0 0 1-3.22-.226c.121 1.382.211 2.839.272 4.37.061 1.532.09 2.719.09 3.56v13.246c0 6.909-1.254 11.76-3.764 14.553-2.509 2.794-6.212 4.19-11.109 4.19-2.419 0-4.944-.54-7.574-1.621m-85.294.135c-2.903-.991-5.216-2.374-6.939-4.146-1.723-1.772-2.585-3.859-2.585-6.262 0-1.623.484-3.034 1.451-4.235.968-1.202 2.358-1.833 4.172-1.893 2.117-.059 3.659.556 4.626 1.848.968 1.291 1.451 2.538 1.451 3.739 0 .481-.061 1.036-.181 1.667-.122.631-.424 1.217-.907 1.758a8.048 8.048 0 0 0 2.811 1.801c1.088.421 2.207.661 3.355.721 1.693.061 3.009-.27 3.946-.99.937-.721 1.602-1.713 1.995-2.974.394-1.262.59-2.674.59-4.235v-4.687a48.517 48.517 0 0 1-9.024-1.216c-2.993-.691-5.714-1.682-8.162-2.973-2.449-1.292-4.415-2.96-5.896-5.002-1.482-2.043-2.223-4.505-2.223-7.389 0-3.424 1.089-6.277 3.266-8.56 2.177-2.283 5.2-3.425 9.069-3.425 2.359 0 4.686.421 6.984 1.262s4.475 2.283 6.53 4.325c.061-.781.106-1.457.136-2.027.03-.571.106-1.277.227-2.118h17.141v6.849c-.604 0-1.481-.015-2.629-.045a36.371 36.371 0 0 1-3.266-.226c.121 1.382.212 2.839.272 4.37.061 1.532.091 2.719.091 3.56 0 2.043.015 3.784.045 5.226.031 1.442.046 2.884.046 4.326v5.226c0 6.007-1.467 10.378-4.399 13.111-2.932 2.733-7.059 4.1-12.38 4.1-3.507 0-6.712-.495-9.613-1.486m2.992-36.54c-1.028.721-1.572 1.922-1.633 3.604 0 1.262.318 2.403.953 3.425.635 1.02 1.512 1.892 2.63 2.612 1.119.721 2.434 1.292 3.945 1.712a29.65 29.65 0 0 0 4.807.902V33.611a12.47 12.47 0 0 0-3.265-2.342 8.629 8.629 0 0 0-3.9-.902c-1.33 0-2.509.361-3.537 1.082M419.224 67.493c-2.872-1.321-5.352-3.124-7.438-5.406-2.085-2.284-3.704-4.927-4.852-7.93-1.148-3.004-1.723-6.218-1.723-9.642 0-4.866 1.013-9.012 3.038-12.435 2.026-3.425 4.731-6.038 8.117-7.84 3.387-1.802 7.105-2.704 11.156-2.704 2.237 0 4.519.285 6.848.857 2.327.571 4.671 1.636 7.029 3.199 2.358 1.561 4.625 3.844 6.802 6.848l-4.172 4.055a18.772 18.772 0 0 0-6.167-5.136c-2.419-1.262-4.898-1.862-7.438-1.803-2.963.121-5.321 1.021-7.074 2.704-1.753 1.682-3.008 3.829-3.764 6.443-.756 2.612-1.134 5.421-1.134 8.425 0 5.106.938 9.011 2.812 11.714 1.875 2.704 4.263 4.145 7.165 4.325.544.061 1.254.016 2.131-.135a9.305 9.305 0 0 0 2.585-.856c.847-.42 1.481-1.081 1.905-1.982a7.1 7.1 0 0 1-.816-2.028c-.182-.751-.273-1.396-.273-1.937 0-1.262.454-2.568 1.361-3.92.907-1.351 2.509-1.997 4.807-1.937 1.935.06 3.431.766 4.489 2.118 1.058 1.352 1.588 2.898 1.588 4.64 0 2.103-.65 4.101-1.951 5.992-1.299 1.893-3.234 3.425-5.804 4.596-2.57 1.172-5.79 1.757-9.659 1.757-3.507 0-6.697-.66-9.568-1.982m-27.115 1.127c-1.42-.571-2.856-1.457-4.307-2.659-1.452-1.201-2.993-2.794-4.626-4.775 0 1.261-.03 2.718-.091 4.37-.06 1.652-.151 2.778-.272 3.379h-4.444c-.605-.601-1.889-1.202-3.855-1.802-1.964-.601-4.126-.902-6.484-.902h-3.628v-6.848c.665.06 1.648.105 2.947.135 1.301.031 2.434.076 3.401.135a86.921 86.921 0 0 1-.271-4.01 81.62 81.62 0 0 1-.091-3.649V36.855c0-1.561-.105-2.958-.318-4.19-.211-1.232-.679-2.177-1.406-2.838-.725-.662-1.934-.992-3.627-.992v-5.857h23.762v6.849c-.605 0-1.497-.015-2.676-.045a33.142 33.142 0 0 1-3.219-.226c.121 1.382.212 2.839.272 4.37.06 1.532.091 2.719.091 3.56v14.688c.362 1.141 1.012 2.389 1.95 3.739a17.12 17.12 0 0 0 3.219 3.515c1.21.992 2.419 1.487 3.628 1.487.182-2.042.907-3.424 2.177-4.145 1.269-.721 2.51-1.082 3.718-1.082 1.573 0 2.812.331 3.719.991.907.662 1.572 1.487 1.995 2.479.423.991.635 1.937.635 2.839 0 2.643-.786 4.55-2.358 5.721-1.571 1.172-3.416 1.757-5.532 1.757-1.451 0-2.888-.285-4.309-.855m-64.298-2.524c-3.417-2.253-6.062-5.211-7.937-8.876-1.873-3.665-2.811-7.599-2.811-11.804 0-4.867.938-9.087 2.811-12.66 1.875-3.575 4.505-6.338 7.892-8.291 3.385-1.952 7.285-2.929 11.699-2.929 2.055 0 4.308.271 6.757.812 2.449.54 4.912 1.606 7.392 3.198 2.478 1.593 4.807 3.92 6.983 6.984l-4.081 3.785c-1.391-1.682-2.887-3.019-4.49-4.01-1.602-.991-3.174-1.698-4.716-2.118-1.542-.42-2.917-.631-4.126-.631-3.144 0-5.654.751-7.528 2.253-1.875 1.502-3.22 3.545-4.037 6.128-.816 2.583-1.224 5.496-1.224 8.741l29.749.54c.06 4.325-.499 7.93-1.679 10.813-1.179 2.884-2.751 5.167-4.716 6.849-1.964 1.682-4.157 2.868-6.575 3.559a26.938 26.938 0 0 1-7.437 1.036c-4.535 0-8.51-1.126-11.926-3.379m6.121-5.767c1.512 1.892 3.598 2.838 6.258 2.838 1.452 0 2.722-.33 3.81-.991 1.088-.66 1.95-1.727 2.585-3.198.634-1.472.982-3.47 1.043-5.993H330.94c.483 3.004 1.481 5.452 2.992 7.344m-82.297 8.291c-1.421-.571-2.857-1.457-4.309-2.659-1.45-1.201-2.992-2.794-4.625-4.775 0 1.261-.03 2.718-.091 4.37-.06 1.652-.151 2.778-.271 3.379h-4.445c-.604-.601-1.89-1.202-3.854-1.802-1.965-.601-4.127-.902-6.485-.902h-3.628v-6.848c.665.06 1.647.105 2.948.135 1.299.031 2.433.076 3.401.135a84.204 84.204 0 0 1-.272-4.01 81.62 81.62 0 0 1-.091-3.649V36.855c0-1.561-.106-2.958-.318-4.19-.211-1.232-.68-2.177-1.405-2.838-.726-.662-1.935-.992-3.628-.992v-5.857h23.762v6.849c-.604 0-1.496-.015-2.675-.045a33.186 33.186 0 0 1-3.221-.226 89.75 89.75 0 0 1 .273 4.37c.061 1.532.091 2.719.091 3.56v14.688c.363 1.141 1.013 2.389 1.95 3.739a17.096 17.096 0 0 0 3.22 3.515c1.208.992 2.418 1.487 3.628 1.487.18-2.042.906-3.424 2.176-4.145 1.27-.721 2.509-1.082 3.719-1.082 1.572 0 2.811.331 3.718.991.907.662 1.572 1.487 1.996 2.479.423.991.634 1.937.634 2.839 0 2.643-.786 4.55-2.358 5.721-1.572 1.172-3.416 1.757-5.532 1.757-1.452 0-2.887-.285-4.308-.855"/>
    </clipPath>
    <clipPath id="c" clipPathUnits="userSpaceOnUse">
      <path d="M463.252 91.012c-.423-.36-1.194-.751-2.313-1.171-1.118-.422-2.63-.781-4.535-1.082-1.904-.301-4.277-.45-7.12-.45V81.46c.666.06 1.648.105 2.948.135 1.301.031 2.435.076 3.401.136a85.533 85.533 0 0 1-.272-4.101 89.403 89.403 0 0 1-.091-3.739V36.855c0-1.561-.09-2.958-.271-4.19-.181-1.232-.65-2.177-1.406-2.838-.756-.662-1.98-.992-3.673-.992v-5.857h23.762v6.849c-.604 0-1.482-.015-2.63-.045a36.348 36.348 0 0 1-3.265-.226c.12 1.382.211 2.839.272 4.37.061 1.532.09 2.719.09 3.56v20.365c1.028.901 2.283 1.682 3.764 2.343 1.482.66 2.978.992 4.49.992 2.539 0 4.399-.947 5.578-2.839 1.179-1.893 1.768-4.792 1.768-8.696l.091-12.796c0-1.561-.106-2.958-.318-4.19-.211-1.232-.695-2.177-1.45-2.838-.757-.662-1.981-.992-3.673-.992v-5.857h23.852v6.849c-.665 0-1.572-.015-2.72-.045a32.85 32.85 0 0 1-3.175-.226c.121 1.382.212 2.839.272 4.37.06 1.532.091 2.719.091 3.56v12.075c-.06 6.969-1.239 12.03-3.537 15.183-2.298 3.155-6.228 4.731-11.791 4.731-1.21 0-2.63-.224-4.262-.675a29.17 29.17 0 0 1-4.807-1.802c-1.573-.752-2.963-1.608-4.173-2.569v26.583zm-159.97 0c-.424-.36-1.194-.751-2.313-1.171-1.119-.422-2.631-.781-4.535-1.082-1.905-.301-4.278-.45-7.12-.45V81.46c.665 0 1.663.031 2.993.09 1.331.06 2.479.121 3.446.181a83.5 83.5 0 0 1-.271-4.326 99.042 99.042 0 0 1-.091-3.604v-5.947c-1.149.42-2.374.795-3.673 1.126-1.3.33-2.767.495-4.399.495-4.474 0-8.405-1.081-11.79-3.244-3.386-2.163-6.017-5.136-7.891-8.921-1.874-3.784-2.811-8.11-2.811-12.975 0-4.626.77-8.651 2.312-12.075 1.542-3.425 3.689-6.068 6.439-7.93 2.752-1.862 5.941-2.794 9.569-2.794 2.298 0 4.505.421 6.621 1.262 2.116.841 4.172 2.283 6.167 4.325.121-.66.227-1.352.318-2.072.09-.721.166-1.412.227-2.073h17.231v6.849c-.604 0-1.48-.015-2.63-.045a36.4 36.4 0 0 1-3.265-.226c.122 1.382.212 2.839.273 4.37.06 1.532.09 2.719.09 3.56v53.526zm-21.087-58.887c-1.421 1.592-2.449 3.618-3.084 6.082a29.842 29.842 0 0 0-.953 7.479c0 2.824.318 5.527.953 8.11.635 2.584 1.738 4.716 3.311 6.398 1.571 1.682 3.748 2.553 6.529 2.613 1.27 0 2.509-.165 3.719-.495 1.21-.331 2.116-.737 2.721-1.217V34.062c-.786-1.261-1.844-2.298-3.175-3.109a8.205 8.205 0 0 0-4.353-1.216c-2.358 0-4.247.796-5.668 2.388M173.776 84.523c-3.99-1.981-7.3-4.595-9.931-7.838-2.63-3.245-4.595-6.804-5.895-10.679-1.3-3.874-1.95-7.704-1.95-11.489 0-3.905.575-7.81 1.723-11.715a32.231 32.231 0 0 1 5.442-10.677c2.479-3.214 5.729-5.783 9.75-7.705 4.021-1.923 8.903-2.884 14.647-2.884 5.382 0 10.067 1.006 14.058 3.02 3.99 2.012 7.301 4.655 9.931 7.929 2.63 3.274 4.596 6.833 5.895 10.678 1.301 3.845 1.951 7.629 1.951 11.354 0 3.785-.62 7.599-1.86 11.444-1.239 3.845-3.129 7.404-5.668 10.678-2.54 3.274-5.805 5.903-9.796 7.884-3.99 1.983-8.737 2.974-14.238 2.974-5.382 0-10.068-.991-14.059-2.974m6.077-53.795c-2.358 1.742-4.232 4.025-5.623 6.848a36.403 36.403 0 0 0-3.038 9.012c-.636 3.183-.952 6.187-.952 9.01 0 2.763.271 5.617.816 8.561.543 2.943 1.451 5.662 2.72 8.155 1.27 2.493 2.963 4.535 5.079 6.127 2.117 1.592 4.716 2.419 7.801 2.479 3.143.059 5.879-.586 8.207-1.938 2.328-1.352 4.248-3.274 5.76-5.767 1.511-2.493 2.629-5.451 3.355-8.876.726-3.424 1.089-7.209 1.089-11.354 0-2.763-.273-5.602-.816-8.515-.545-2.914-1.452-5.603-2.721-8.065-1.27-2.463-2.963-4.46-5.08-5.992-2.116-1.533-4.746-2.299-7.89-2.299-3.446 0-6.349.871-8.707 2.614m476.886 37.666c-2.086-.721-4.188-1.982-6.304-3.785-.06.541-.12 1.247-.181 2.118a17.703 17.703 0 0 1-.272 2.208h-4.444c-.423-.36-1.195-.751-2.313-1.171-1.118-.422-2.63-.782-4.535-1.082-1.904-.301-4.277-.451-7.12-.451v-6.848c.666.06 1.664.105 2.994.135 1.33.031 2.478.076 3.446.135a85.538 85.538 0 0 1-.272-4.01 83.153 83.153 0 0 1-.091-3.649V13.877c0-1.562-.106-2.958-.317-4.19-.212-1.231-.695-2.177-1.451-2.839-.756-.661-1.98-.991-3.673-.991V0h23.762v6.848c-.605 0-1.482-.014-2.63-.045a32.844 32.844 0 0 1-3.174-.225c.12 1.382.196 2.839.226 4.371.03 1.531.045 2.718.045 3.559v8.651a37.65 37.65 0 0 1 3.673-1.127c1.301-.33 2.767-.496 4.4-.496 4.535 0 8.479 1.082 11.835 3.245 3.356 2.162 5.971 5.151 7.846 8.965 1.873 3.816 2.811 8.126 2.811 12.932 0 4.625-.771 8.65-2.313 12.074-1.541 3.424-3.688 6.068-6.439 7.93-2.752 1.862-5.941 2.793-9.569 2.793-1.874 0-3.854-.36-5.94-1.081m-3.492-39.649c-1.21.361-2.147.752-2.812 1.172V57.4a9.236 9.236 0 0 0 3.175 2.839c1.27.691 2.66 1.066 4.172 1.127 2.358.06 4.262-.676 5.713-2.208 1.452-1.532 2.509-3.53 3.175-5.992.665-2.464.998-5.077.998-7.84 0-2.944-.303-5.707-.908-8.29-.604-2.584-1.677-4.671-3.219-6.263-1.541-1.592-3.703-2.418-6.484-2.478-.191-.009-.38-.012-.568-.012-1.125 0-2.205.153-3.242.462m-51.466 39.109a27.886 27.886 0 0 1-7.21-4.326c-1.089 1.982-2.539 3.47-4.354 4.461-1.813.991-4.111 1.486-6.892 1.486-2.117 0-4.369-.45-6.757-1.351a26.303 26.303 0 0 1-6.666-3.695c-.061.6-.106 1.352-.136 2.253-.031.901-.107 1.652-.227 2.253h-4.444c-.423-.36-1.195-.751-2.313-1.171-1.118-.422-2.645-.782-4.58-1.082-1.935-.301-4.293-.451-7.074-.451v-6.848c.665.06 1.648.105 2.947.135 1.301.031 2.434.076 3.401.135a88.337 88.337 0 0 1-.272-4.01 83.153 83.153 0 0 1-.091-3.649V36.855c0-1.561-.105-2.958-.317-4.19-.212-1.232-.68-2.177-1.406-2.838-.725-.662-1.934-.992-3.627-.992v-5.857h23.308v6.849a88.48 88.48 0 0 1-2.449-.045 31.823 31.823 0 0 1-2.992-.226c.12 1.382.211 2.839.272 4.37.06 1.532.09 2.719.09 3.56v20.365a16.862 16.862 0 0 0 3.492 2.343c1.3.66 2.706.992 4.218.992 2.056-.061 3.657-.812 4.807-2.254 1.148-1.441 1.722-4.115 1.722-8.019l.091-14.058c0-1.561-.091-2.958-.272-4.19-.181-1.232-.62-2.177-1.314-2.838-.696-.662-1.83-.992-3.402-.992v-5.857h23.4v6.849c-.666 0-1.573-.015-2.721-.045a32.827 32.827 0 0 1-3.174-.226c.12 1.382.211 2.839.271 4.37.061 1.532.091 2.719.091 3.56v12.075c0 1.622-.06 3.154-.182 4.596a24.688 24.688 0 0 1-.634 3.964 17.535 17.535 0 0 0 3.673 2.163c1.361.601 2.827.871 4.399.811 2.056-.06 3.704-.841 4.943-2.343 1.239-1.501 1.889-4.205 1.95-8.11V36.855c0-1.561-.091-2.958-.272-4.19-.181-1.232-.59-2.177-1.225-2.838-.635-.662-1.647-.992-3.038-.992v-5.857h22.946v6.849c-.604 0-1.496-.015-2.675-.045a33.141 33.141 0 0 1-3.22-.226c.121 1.382.211 2.839.272 4.37.061 1.532.09 2.719.09 3.56v13.246c0 6.909-1.254 11.76-3.764 14.553-2.509 2.794-6.212 4.19-11.109 4.19-2.419 0-4.944-.54-7.574-1.621m-85.294.135c-2.903-.991-5.216-2.374-6.939-4.146-1.723-1.772-2.585-3.859-2.585-6.262 0-1.623.484-3.034 1.451-4.235.968-1.202 2.358-1.833 4.172-1.893 2.117-.059 3.659.556 4.626 1.848.968 1.291 1.451 2.538 1.451 3.739 0 .481-.061 1.036-.181 1.667-.122.631-.424 1.217-.907 1.758a8.048 8.048 0 0 0 2.811 1.801c1.088.421 2.207.661 3.355.721 1.693.061 3.009-.27 3.946-.99.937-.721 1.602-1.713 1.995-2.974.394-1.262.59-2.674.59-4.235v-4.687a48.517 48.517 0 0 1-9.024-1.216c-2.993-.691-5.714-1.682-8.162-2.973-2.449-1.292-4.415-2.96-5.896-5.002-1.482-2.043-2.223-4.505-2.223-7.389 0-3.424 1.089-6.277 3.266-8.56 2.177-2.283 5.2-3.425 9.069-3.425 2.359 0 4.686.421 6.984 1.262s4.475 2.283 6.53 4.325c.061-.781.106-1.457.136-2.027.03-.571.106-1.277.227-2.118h17.141v6.849c-.604 0-1.481-.015-2.629-.045a36.371 36.371 0 0 1-3.266-.226c.121 1.382.212 2.839.272 4.37.061 1.532.091 2.719.091 3.56 0 2.043.015 3.784.045 5.226.031 1.442.046 2.884.046 4.326v5.226c0 6.007-1.467 10.378-4.399 13.111-2.932 2.733-7.059 4.1-12.38 4.1-3.507 0-6.712-.495-9.613-1.486m2.992-36.54c-1.028.721-1.572 1.922-1.633 3.604 0 1.262.318 2.403.953 3.425.635 1.02 1.512 1.892 2.63 2.612 1.119.721 2.434 1.292 3.945 1.712a29.65 29.65 0 0 0 4.807.902V33.611a12.47 12.47 0 0 0-3.265-2.342 8.629 8.629 0 0 0-3.9-.902c-1.33 0-2.509.361-3.537 1.082M419.224 67.493c-2.872-1.321-5.352-3.124-7.438-5.406-2.085-2.284-3.704-4.927-4.852-7.93-1.148-3.004-1.723-6.218-1.723-9.642 0-4.866 1.013-9.012 3.038-12.435 2.026-3.425 4.731-6.038 8.117-7.84 3.387-1.802 7.105-2.704 11.156-2.704 2.237 0 4.519.285 6.848.857 2.327.571 4.671 1.636 7.029 3.199 2.358 1.561 4.625 3.844 6.802 6.848l-4.172 4.055a18.772 18.772 0 0 0-6.167-5.136c-2.419-1.262-4.898-1.862-7.438-1.803-2.963.121-5.321 1.021-7.074 2.704-1.753 1.682-3.008 3.829-3.764 6.443-.756 2.612-1.134 5.421-1.134 8.425 0 5.106.938 9.011 2.812 11.714 1.875 2.704 4.263 4.145 7.165 4.325.544.061 1.254.016 2.131-.135a9.305 9.305 0 0 0 2.585-.856c.847-.42 1.481-1.081 1.905-1.982a7.1 7.1 0 0 1-.816-2.028c-.182-.751-.273-1.396-.273-1.937 0-1.262.454-2.568 1.361-3.92.907-1.351 2.509-1.997 4.807-1.937 1.935.06 3.431.766 4.489 2.118 1.058 1.352 1.588 2.898 1.588 4.64 0 2.103-.65 4.101-1.951 5.992-1.299 1.893-3.234 3.425-5.804 4.596-2.57 1.172-5.79 1.757-9.659 1.757-3.507 0-6.697-.66-9.568-1.982m-27.115 1.127c-1.42-.571-2.856-1.457-4.307-2.659-1.452-1.201-2.993-2.794-4.626-4.775 0 1.261-.03 2.718-.091 4.37-.06 1.652-.151 2.778-.272 3.379h-4.444c-.605-.601-1.889-1.202-3.855-1.802-1.964-.601-4.126-.902-6.484-.902h-3.628v-6.848c.665.06 1.648.105 2.947.135 1.301.031 2.434.076 3.401.135a86.921 86.921 0 0 1-.271-4.01 81.62 81.62 0 0 1-.091-3.649V36.855c0-1.561-.105-2.958-.318-4.19-.211-1.232-.679-2.177-1.406-2.838-.725-.662-1.934-.992-3.627-.992v-5.857h23.762v6.849c-.605 0-1.497-.015-2.676-.045a33.142 33.142 0 0 1-3.219-.226c.121 1.382.212 2.839.272 4.37.06 1.532.091 2.719.091 3.56v14.688c.362 1.141 1.012 2.389 1.95 3.739a17.12 17.12 0 0 0 3.219 3.515c1.21.992 2.419 1.487 3.628 1.487.182-2.042.907-3.424 2.177-4.145 1.269-.721 2.51-1.082 3.718-1.082 1.573 0 2.812.331 3.719.991.907.662 1.572 1.487 1.995 2.479.423.991.635 1.937.635 2.839 0 2.643-.786 4.55-2.358 5.721-1.571 1.172-3.416 1.757-5.532 1.757-1.451 0-2.888-.285-4.309-.855m-64.298-2.524c-3.417-2.253-6.062-5.211-7.937-8.876-1.873-3.665-2.811-7.599-2.811-11.804 0-4.867.938-9.087 2.811-12.66 1.875-3.575 4.505-6.338 7.892-8.291 3.385-1.952 7.285-2.929 11.699-2.929 2.055 0 4.308.271 6.757.812 2.449.54 4.912 1.606 7.392 3.198 2.478 1.593 4.807 3.92 6.983 6.984l-4.081 3.785c-1.391-1.682-2.887-3.019-4.49-4.01-1.602-.991-3.174-1.698-4.716-2.118-1.542-.42-2.917-.631-4.126-.631-3.144 0-5.654.751-7.528 2.253-1.875 1.502-3.22 3.545-4.037 6.128-.816 2.583-1.224 5.496-1.224 8.741l29.749.54c.06 4.325-.499 7.93-1.679 10.813-1.179 2.884-2.751 5.167-4.716 6.849-1.964 1.682-4.157 2.868-6.575 3.559a26.938 26.938 0 0 1-7.437 1.036c-4.535 0-8.51-1.126-11.926-3.379m6.121-5.767c1.512 1.892 3.598 2.838 6.258 2.838 1.452 0 2.722-.33 3.81-.991 1.088-.66 1.95-1.727 2.585-3.198.634-1.472.982-3.47 1.043-5.993H330.94c.483 3.004 1.481 5.452 2.992 7.344m-82.297 8.291c-1.421-.571-2.857-1.457-4.309-2.659-1.45-1.201-2.992-2.794-4.625-4.775 0 1.261-.03 2.718-.091 4.37-.06 1.652-.151 2.778-.271 3.379h-4.445c-.604-.601-1.89-1.202-3.854-1.802-1.965-.601-4.127-.902-6.485-.902h-3.628v-6.848c.665.06 1.647.105 2.948.135 1.299.031 2.433.076 3.401.135a84.204 84.204 0 0 1-.272-4.01 81.62 81.62 0 0 1-.091-3.649V36.855c0-1.561-.106-2.958-.318-4.19-.211-1.232-.68-2.177-1.405-2.838-.726-.662-1.935-.992-3.628-.992v-5.857h23.762v6.849c-.604 0-1.496-.015-2.675-.045a33.186 33.186 0 0 1-3.221-.226 89.75 89.75 0 0 1 .273 4.37c.061 1.532.091 2.719.091 3.56v14.688c.363 1.141 1.013 2.389 1.95 3.739a17.096 17.096 0 0 0 3.22 3.515c1.208.992 2.418 1.487 3.628 1.487.18-2.042.906-3.424 2.176-4.145 1.27-.721 2.509-1.082 3.719-1.082 1.572 0 2.811.331 3.718.991.907.662 1.572 1.487 1.996 2.479.423.991.634 1.937.634 2.839 0 2.643-.786 4.55-2.358 5.721-1.572 1.172-3.416 1.757-5.532 1.757-1.452 0-2.887-.285-4.308-.855"/>
    </clipPath>
    <clipPath id="d" clipPathUnits="userSpaceOnUse">
      <path d="M-120 0h681v-94h-681Z"/>
    </clipPath>
  </defs>
  <g fill="#333">
    <path d="M0 0c5.381 0 10.067 1.006 14.058 3.019 3.991 2.012 7.301 4.655 9.931 7.929 2.63 3.274 4.595 6.834 5.895 10.679 1.3 3.844 1.95 7.629 1.95 11.354 0 3.784-.619 7.599-1.859 11.444-1.239 3.844-3.129 7.404-5.668 10.678-2.54 3.274-5.805 5.902-9.796 7.884-3.99 1.983-8.737 2.974-14.239 2.974-5.381 0-10.067-.991-14.058-2.974-3.99-1.982-7.301-4.595-9.931-7.839-2.63-3.244-4.595-6.804-5.895-10.678-1.3-3.875-1.95-7.705-1.95-11.489 0-3.905.574-7.81 1.723-11.715a32.227 32.227 0 0 1 5.442-10.678c2.479-3.214 5.729-5.782 9.75-7.704C-10.627.961-5.744 0 0 0m.998 6.578c-3.447 0-6.349.871-8.707 2.613-2.358 1.742-4.233 4.025-5.623 6.849a36.397 36.397 0 0 0-3.039 9.011c-.634 3.184-.952 6.187-.952 9.011 0 2.763.272 5.617.816 8.56.545 2.944 1.452 5.662 2.721 8.155 1.27 2.493 2.963 4.536 5.079 6.128 2.116 1.592 4.716 2.418 7.8 2.478 3.144.06 5.88-.586 8.208-1.937 2.328-1.352 4.248-3.274 5.759-5.767 1.512-2.494 2.63-5.452 3.356-8.876.726-3.425 1.088-7.209 1.088-11.354 0-2.764-.272-5.602-.816-8.516-.544-2.913-1.451-5.602-2.721-8.065-1.27-2.463-2.963-4.46-5.079-5.992C6.772 7.344 4.142 6.578.998 6.578m59.764-5.136V8.29c-.605 0-1.496-.015-2.676-.045a33.138 33.138 0 0 1-3.219-.225c.121 1.382.211 2.838.272 4.37.06 1.532.091 2.719.091 3.56v14.688c.362 1.141 1.012 2.388 1.95 3.739a17.146 17.146 0 0 0 3.219 3.515c1.21.991 2.419 1.486 3.628 1.486.181-2.042.907-3.424 2.177-4.145 1.27-.721 2.509-1.081 3.718-1.081 1.572 0 2.812.33 3.719.991s1.572 1.487 1.995 2.478c.423.991.635 1.938.635 2.839 0 2.643-.786 4.55-2.358 5.722-1.572 1.171-3.416 1.757-5.533 1.757-1.451 0-2.887-.285-4.308-.856-1.42-.571-2.857-1.457-4.308-2.658-1.451-1.202-2.993-2.794-4.625-4.776 0 1.261-.03 2.718-.091 4.37-.06 1.652-.151 2.779-.272 3.379h-4.444c-.605-.6-1.89-1.201-3.855-1.802s-4.126-.901-6.484-.901h-3.628v-6.848c.665.06 1.647.105 2.947.135a89.1 89.1 0 0 1 3.402.135 85.624 85.624 0 0 1-.273-4.01 83.078 83.078 0 0 1-.09-3.65V15.319c0-1.562-.106-2.959-.318-4.19-.211-1.232-.68-2.178-1.405-2.839-.726-.661-1.935-.991-3.628-.991V1.442ZM95.585 0c2.298 0 4.505.421 6.621 1.262 2.116.841 4.172 2.282 6.167 4.325.121-.661.227-1.352.317-2.073.091-.721.167-1.411.227-2.072h17.232V8.29c-.604 0-1.481-.015-2.63-.045a36.386 36.386 0 0 1-3.265-.225c.121 1.382.212 2.838.272 4.37.061 1.532.091 2.719.091 3.56v53.525h-4.898c-.423-.36-1.194-.751-2.312-1.171-1.119-.421-2.63-.781-4.535-1.081-1.905-.301-4.278-.451-7.12-.451v-6.848c.665 0 1.663.03 2.993.09 1.33.06 2.479.12 3.447.18a83.343 83.343 0 0 1-.273-4.325c-.06-1.562-.09-2.764-.09-3.605v-5.947c-1.149.42-2.373.796-3.673 1.126-1.3.331-2.767.496-4.399.496-4.474 0-8.405-1.081-11.791-3.244-3.386-2.163-6.016-5.136-7.89-8.921-1.874-3.785-2.812-8.11-2.812-12.976 0-4.626.771-8.651 2.313-12.075 1.542-3.424 3.688-6.067 6.44-7.93C88.768.931 91.957 0 95.585 0m4.716 8.2c-2.358 0-4.248.796-5.668 2.388-1.421 1.592-2.449 3.619-3.084 6.082a29.855 29.855 0 0 0-.952 7.48c0 2.823.317 5.526.952 8.11.635 2.583 1.738 4.715 3.31 6.398 1.572 1.682 3.749 2.553 6.53 2.613 1.27 0 2.51-.165 3.719-.496 1.209-.33 2.116-.736 2.721-1.216V12.525c-.786-1.261-1.844-2.297-3.174-3.108a8.212 8.212 0 0 0-4.354-1.217M151.903 0c2.055 0 4.308.27 6.757.811 2.448.541 4.912 1.607 7.391 3.199 2.479 1.592 4.807 3.92 6.984 6.984l-4.081 3.784c-1.391-1.682-2.888-3.019-4.49-4.01-1.602-.991-3.174-1.697-4.716-2.117-1.542-.421-2.917-.631-4.127-.631-3.144 0-5.653.751-7.527 2.253-1.875 1.501-3.22 3.544-4.036 6.127-.817 2.583-1.225 5.497-1.225 8.741l29.748.541c.061 4.325-.498 7.929-1.677 10.813-1.179 2.883-2.752 5.166-4.717 6.848-1.965 1.682-4.156 2.869-6.575 3.56a26.944 26.944 0 0 1-7.437 1.036c-4.535 0-8.51-1.126-11.927-3.379-3.416-2.253-6.061-5.212-7.936-8.876-1.874-3.665-2.811-7.599-2.811-11.805 0-4.866.937-9.086 2.811-12.66 1.875-3.575 4.505-6.338 7.891-8.29C143.589.976 147.489 0 151.903 0m8.162 31.449h-16.688c.484 3.003 1.482 5.451 2.993 7.344 1.512 1.892 3.598 2.838 6.258 2.838 1.451 0 2.721-.33 3.81-.991 1.088-.661 1.95-1.727 2.584-3.199.635-1.472.983-3.469 1.043-5.992m41.172-30.007V8.29c-.605 0-1.496-.015-2.676-.045a33.16 33.16 0 0 1-3.219-.225c.121 1.382.211 2.838.272 4.37.06 1.532.091 2.719.091 3.56v14.688c.362 1.141 1.012 2.388 1.95 3.739a17.146 17.146 0 0 0 3.219 3.515c1.209.991 2.419 1.486 3.628 1.486.182-2.042.907-3.424 2.177-4.145 1.27-.721 2.509-1.081 3.718-1.081 1.572 0 2.812.33 3.719.991s1.572 1.487 1.995 2.478c.423.991.635 1.938.635 2.839 0 2.643-.786 4.55-2.358 5.722-1.572 1.171-3.416 1.757-5.533 1.757-1.451 0-2.887-.285-4.308-.856-1.421-.571-2.857-1.457-4.308-2.658-1.451-1.202-2.993-2.794-4.625-4.776 0 1.261-.03 2.718-.091 4.37-.06 1.652-.151 2.779-.272 3.379h-4.444c-.605-.6-1.889-1.201-3.855-1.802-1.965-.601-4.126-.901-6.484-.901h-3.628v-6.848c.665.06 1.648.105 2.947.135a89.1 89.1 0 0 1 3.402.135 85.63 85.63 0 0 1-.272-4.01 81.663 81.663 0 0 1-.091-3.65V15.319c0-1.562-.106-2.959-.318-4.19-.211-1.232-.68-2.178-1.405-2.839-.726-.661-1.935-.991-3.628-.991V1.442ZM239.96 0c2.237 0 4.52.285 6.847.856 2.328.571 4.671 1.637 7.029 3.199 2.359 1.562 4.626 3.845 6.803 6.848l-4.172 4.055a18.79 18.79 0 0 0-6.168-5.136c-2.418-1.261-4.897-1.862-7.437-1.802-2.963.12-5.321 1.021-7.074 2.703-1.754 1.682-3.008 3.83-3.764 6.443-.756 2.613-1.134 5.422-1.134 8.425 0 5.107.938 9.012 2.812 11.715 1.874 2.703 4.263 4.145 7.165 4.325.544.06 1.254.015 2.131-.135a9.338 9.338 0 0 0 2.585-.856c.847-.421 1.481-1.081 1.905-1.982a7.153 7.153 0 0 1-.817-2.028c-.181-.751-.272-1.397-.272-1.937 0-1.262.454-2.569 1.361-3.92.907-1.352 2.509-1.998 4.807-1.938 1.934.061 3.431.766 4.489 2.118 1.058 1.352 1.587 2.899 1.587 4.641 0 2.102-.65 4.1-1.95 5.992-1.3 1.892-3.235 3.424-5.804 4.596-2.57 1.171-5.79 1.757-9.659 1.757-3.507 0-6.697-.661-9.569-1.983-2.872-1.321-5.351-3.123-7.437-5.406-2.086-2.283-3.703-4.926-4.852-7.93-1.149-3.004-1.723-6.218-1.723-9.642 0-4.866 1.012-9.011 3.038-12.435 2.025-3.424 4.731-6.037 8.117-7.84C232.19.901 235.909 0 239.96 0m46.16 1.442V8.29c-.605 0-1.482-.015-2.63-.045a36.386 36.386 0 0 1-3.265-.225c.121 1.382.211 2.838.272 4.37.06 1.532.09 2.719.09 3.56v20.365c1.028.901 2.283 1.682 3.764 2.343 1.482.66 2.978.991 4.49.991 2.539 0 4.398-.946 5.578-2.839 1.179-1.892 1.768-4.791 1.768-8.695l.091-12.796c0-1.562-.106-2.959-.318-4.19-.211-1.232-.695-2.178-1.451-2.839-.756-.661-1.98-.991-3.673-.991V1.442h23.853V8.29c-.665 0-1.572-.015-2.721-.045a32.844 32.844 0 0 1-3.174-.225c.121 1.382.211 2.838.272 4.37.06 1.532.091 2.719.091 3.56v12.074c-.061 6.969-1.24 12.03-3.538 15.184-2.297 3.154-6.227 4.731-11.79 4.731-1.209 0-2.63-.225-4.263-.676a29.057 29.057 0 0 1-4.807-1.802c-1.572-.751-2.962-1.607-4.172-2.568v26.582h-4.897c-.423-.36-1.194-.751-2.313-1.171-1.119-.421-2.63-.781-4.535-1.081-1.904-.301-4.278-.451-7.119-.451v-6.848c.665.06 1.647.105 2.947.135 1.3.03 2.434.075 3.401.135a85.49 85.49 0 0 1-.272-4.1 89.408 89.408 0 0 1-.091-3.74V15.319c0-1.562-.09-2.959-.272-4.19-.181-1.232-.65-2.178-1.405-2.839-.756-.661-1.98-.991-3.673-.991V1.442ZM329.74 0c2.358 0 4.686.421 6.984 1.262 2.297.841 4.474 2.282 6.53 4.325.06-.781.106-1.457.136-2.028.03-.57.106-1.276.227-2.117h17.141V8.29c-.604 0-1.481-.015-2.63-.045a36.386 36.386 0 0 1-3.265-.225c.121 1.382.212 2.838.272 4.37.061 1.532.091 2.719.091 3.56 0 2.042.015 3.784.045 5.226.03 1.442.046 2.884.046 4.325v5.227c0 6.007-1.467 10.378-4.399 13.111-2.933 2.733-7.059 4.1-12.38 4.1-3.507 0-6.712-.496-9.614-1.487-2.902-.991-5.215-2.373-6.938-4.145-1.723-1.772-2.585-3.86-2.585-6.263 0-1.622.484-3.033 1.451-4.235.968-1.201 2.358-1.832 4.172-1.892 2.116-.06 3.658.555 4.625 1.847.968 1.292 1.452 2.538 1.452 3.74 0 .48-.061 1.036-.182 1.667-.121.63-.423 1.216-.907 1.757a8.05 8.05 0 0 0 2.812 1.802c1.088.421 2.207.661 3.356.721 1.693.06 3.008-.27 3.945-.991.937-.721 1.602-1.712 1.995-2.974.393-1.261.59-2.673.59-4.235v-4.686a48.708 48.708 0 0 1-9.025-1.216c-2.992-.691-5.713-1.682-8.162-2.974-2.449-1.292-4.414-2.959-5.895-5.001-1.482-2.043-2.222-4.506-2.222-7.389 0-3.424 1.088-6.278 3.265-8.561C322.847 1.141 325.87 0 329.74 0m5.714 8.831c-1.33 0-2.509.36-3.537 1.081s-1.572 1.923-1.633 3.605c0 1.261.318 2.403.953 3.424s1.511 1.892 2.63 2.613c1.119.721 2.434 1.292 3.945 1.712 1.512.421 3.114.721 4.807.901V12.075a12.497 12.497 0 0 0-3.265-2.343 8.64 8.64 0 0 0-3.9-.901m52.055-7.389V8.29c-.604 0-1.421-.015-2.449-.045a31.853 31.853 0 0 1-2.992-.225c.12 1.382.211 2.838.272 4.37.06 1.532.09 2.719.09 3.56v20.365a16.862 16.862 0 0 0 3.492 2.343c1.3.66 2.706.991 4.217.991 2.056-.06 3.658-.811 4.807-2.253 1.149-1.442 1.723-4.115 1.723-8.02l.091-14.057c0-1.562-.091-2.959-.272-4.19-.181-1.232-.62-2.178-1.315-2.839s-1.829-.991-3.401-.991V1.442h23.4V8.29c-.666 0-1.573-.015-2.721-.045a32.889 32.889 0 0 1-3.175-.225c.121 1.382.212 2.838.272 4.37.061 1.532.091 2.719.091 3.56v12.074c0 1.622-.06 3.154-.181 4.596a24.809 24.809 0 0 1-.635 3.965 17.596 17.596 0 0 0 3.673 2.163c1.36.6 2.827.871 4.399.811 2.056-.06 3.703-.841 4.943-2.343 1.239-1.502 1.889-4.205 1.95-8.11V15.319c0-1.562-.091-2.959-.272-4.19-.182-1.232-.59-2.178-1.225-2.839-.635-.661-1.648-.991-3.038-.991V1.442h22.946V8.29c-.605 0-1.497-.015-2.676-.045a33.138 33.138 0 0 1-3.219-.225c.121 1.382.211 2.838.272 4.37.06 1.532.091 2.719.091 3.56v13.246c0 6.908-1.255 11.759-3.764 14.553-2.51 2.793-6.213 4.19-11.111 4.19-2.418 0-4.943-.541-7.573-1.622a27.838 27.838 0 0 1-7.21-4.325c-1.088 1.982-2.54 3.469-4.353 4.46-1.814.991-4.112 1.487-6.893 1.487-2.117 0-4.369-.451-6.757-1.352a26.3 26.3 0 0 1-6.666-3.694c-.061.6-.106 1.351-.137 2.252-.03.902-.105 1.653-.226 2.253h-4.444c-.424-.36-1.194-.751-2.313-1.171-1.119-.421-2.645-.781-4.58-1.082-1.935-.3-4.293-.45-7.075-.45v-6.848c.666.06 1.648.105 2.948.135 1.3.03 2.434.075 3.401.135a87.01 87.01 0 0 1-.272-4.01 83.195 83.195 0 0 1-.091-3.65V15.319c0-1.562-.105-2.959-.317-4.19-.212-1.232-.68-2.178-1.406-2.839-.725-.661-1.935-.991-3.628-.991V1.442Zm80.897-22.978v6.848c-.605 0-1.482-.015-2.63-.045a32.889 32.889 0 0 1-3.175-.225 64.64 64.64 0 0 1 .227 4.37c.03 1.532.045 2.718.045 3.559v8.651a37.506 37.506 0 0 1 3.674-1.126C467.846.165 469.313 0 470.945 0c4.535 0 8.48 1.081 11.836 3.244 3.356 2.163 5.971 5.151 7.845 8.966 1.875 3.815 2.812 8.125 2.812 12.931 0 4.626-.771 8.651-2.313 12.075-1.542 3.424-3.688 6.067-6.439 7.929-2.751 1.863-5.941 2.794-9.569 2.794-1.874 0-3.854-.361-5.94-1.081-2.086-.721-4.187-1.983-6.304-3.785-.06.541-.121 1.246-.181 2.118a17.66 17.66 0 0 1-.272 2.207h-4.444c-.424-.36-1.195-.751-2.313-1.171-1.119-.421-2.63-.781-4.535-1.082-1.904-.3-4.278-.45-7.12-.45v-6.848c.666.06 1.663.105 2.994.135 1.33.03 2.479.075 3.446.135a85.63 85.63 0 0 1-.272-4.01 81.663 81.663 0 0 1-.091-3.65V-7.659c0-1.562-.106-2.959-.317-4.191-.212-1.231-.696-2.177-1.451-2.838-.756-.661-1.981-.991-3.674-.991v-5.857zm1.088 28.294c-1.33-.06-2.6.09-3.809.451-1.209.36-2.147.751-2.812 1.171v27.484a9.246 9.246 0 0 0 3.175 2.839c1.269.69 2.66 1.066 4.172 1.126 2.358.06 4.262-.676 5.714-2.208 1.451-1.532 2.509-3.529 3.174-5.992s.998-5.076.998-7.84c0-2.943-.303-5.707-.908-8.29-.604-2.583-1.677-4.671-3.219-6.263-1.542-1.592-3.704-2.418-6.485-2.478" clip-path="url(#a)" transform="matrix(1.33333 0 0 -1.33333 250.083 96.618)"/>
    <path d="M-862-495h1920V585H-862Z" clip-path="url(#b)" transform="matrix(1.33333 0 0 -1.33333 0 125.333)"/>
    <path d="M155 92.012h527V-1H155Z" clip-path="url(#c)" transform="matrix(1.33333 0 0 -1.33333 0 125.333)"/>
    <path fill-rule="evenodd" d="m0 0 .001-20.914c-5.474 7.256-14.187 11.95-24 11.95-16.569 0-30-13.379-30-29.882s13.431-29.881 30-29.881c9.813 0 18.526 4.693 24 11.95L0-77.692h-80.183c-21.99 0-39.816 17.392-39.816 38.846C-119.999-17.392-102.173 0-80.183 0z" clip-path="url(#d)" transform="matrix(1.33333 0 0 -1.33333 159.999 0)"/>
  </g>
</svg>
