<svg viewBox="0 0 387.94 58.7" xmlns="http://www.w3.org/2000/svg"><g fill="#333"><path d="m71.92 14q-5.4 0-8.49 6.51h-.06v-6.3h-3.49l-10.88 1.71v2.17h2.3a2.06 2.06 0 0 1 1.55.43 2.93 2.93 0 0 1 .36 1.75v19.73a5.62 5.62 0 0 1 -.3 2.17 1.61 1.61 0 0 1 -1.15.89 11.39 11.39 0 0 1 -2.76.24v2.18h19.43v-2.18a12.53 12.53 0 0 1 -3.06-.3 2 2 0 0 1 -1.31-.92 4.62 4.62 0 0 1 -.36-2.08v-12.17a14 14 0 0 1 .72-4.17 15.89 15.89 0 0 1 1.81-4c.77-1.14 1.44-1.66 2.14-1.66.44 0 .66.13.66.4a2.75 2.75 0 0 1 -.43.75 3.16 3.16 0 0 0 -.43 1.81 3.85 3.85 0 0 0 1.32 3.04 5.12 5.12 0 0 0 3.42 1.12 4.48 4.48 0 0 0 3.78-1.58 6 6 0 0 0 1.22-3.82 5.51 5.51 0 0 0 -1.68-4.25 6.09 6.09 0 0 0 -4.31-1.47z"/><path d="m112 43.07a1.3 1.3 0 0 1 -.59-.89 10 10 0 0 1 -.16-2.17v-39.95h-3.43l-11.15 1.64v2.24h2.44a1.84 1.84 0 0 1 1.35.43 2.19 2.19 0 0 1 .43 1.55v8.62h-.27a17.44 17.44 0 0 0 -5.33-.79q-7.7 0-11.91 4.38t-4.22 12.6q0 7.38 3.43 11.42t9.54 4.05a13.45 13.45 0 0 0 4.81-.82 14.45 14.45 0 0 0 4.34-2.73l.46 2.83h13.76v-2.18h-2a3.12 3.12 0 0 1 -1.5-.23zm-11.15-3.19c-1.63 2-3.29 3-5 3q-2.89 0-4.44-3.52c-1-2.34-1.55-5.87-1.55-10.56 0-4.26.49-7.46 1.45-9.61a4.91 4.91 0 0 1 4.74-3.23 7.66 7.66 0 0 1 4.81 1.84z"/><path d="m133.8 13.75q-7.64 0-11.62 4.11t-4 12.21q0 8 3.88 12.11t11.39 4.09a17.37 17.37 0 0 0 7.29-1.27 11.48 11.48 0 0 0 4.38-3.26 22.23 22.23 0 0 0 2.7-4.57l-2.37-1.17q-2.83 6.18-9 6.18a5.83 5.83 0 0 1 -5.36-2.69q-1.68-2.7-1.88-9.35h19.62v-.4q-.02-15.99-15.03-15.99zm-4.61 14.25q0-6.91 1.09-9.48c.72-1.71 1.81-2.57 3.26-2.57q2.43 0 3.35 2.7c.62 1.8.92 4.91.92 9.35z"/><path d="m174.81 14q-5.4 0-8.49 6.51h-.07v-6.3h-3.49l-10.86 1.71v2.17h2.3a2.06 2.06 0 0 1 1.55.43 2.93 2.93 0 0 1 .36 1.75v19.73a5.87 5.87 0 0 1 -.29 2.17 1.63 1.63 0 0 1 -1.16.89 11.39 11.39 0 0 1 -2.76.23v2.18h19.42v-2.17a12.42 12.42 0 0 1 -3.06-.26 2 2 0 0 1 -1.32-.92 4.62 4.62 0 0 1 -.36-2.11v-12.18a14.32 14.32 0 0 1 .72-4.17 16.63 16.63 0 0 1 1.81-4c.73-1.12 1.44-1.68 2.14-1.68.44 0 .66.13.66.4a2.47 2.47 0 0 1 -.43.75 3.25 3.25 0 0 0 -.42 1.81 3.84 3.84 0 0 0 1.31 3.1 5.14 5.14 0 0 0 3.42 1.12 4.48 4.48 0 0 0 3.79-1.58 6.1 6.1 0 0 0 1.22-3.82 5.51 5.51 0 0 0 -1.68-4.25 6.12 6.12 0 0 0 -4.31-1.51z"/><path d="m205.45 40.67a7.74 7.74 0 0 1 -5.1 1.51 6.71 6.71 0 0 1 -4.25-1.18 7.58 7.58 0 0 1 -2.3-4.28 37 37 0 0 1 -.76-8.53 38.7 38.7 0 0 1 .56-7.47 7.26 7.26 0 0 1 1.65-3.72 3.92 3.92 0 0 1 2.86-1 3.61 3.61 0 0 1 2.53.76 2.59 2.59 0 0 1 .83 2 5.2 5.2 0 0 1 -.4 1.64 4.82 4.82 0 0 0 -.53 2.17 3.59 3.59 0 0 0 1.29 3 5.39 5.39 0 0 0 3.45 1 4.72 4.72 0 0 0 3.72-1.37 4.92 4.92 0 0 0 1.18-3.42 6.85 6.85 0 0 0 -3.12-5.78q-3.09-2.24-8.69-2.24-7.5 0-11.91 4.31t-4.41 12.33q0 7.64 4 11.75t11.42 4.12a15.36 15.36 0 0 0 7-1.39 10.91 10.91 0 0 0 4-3.22 25.9 25.9 0 0 0 2.5-4.54l-2.26-1.12a13.2 13.2 0 0 1 -3.26 4.67z"/><path d="m228.91 18.16v-18.1h-3.48l-11.19 1.71v2.17h2.3a2 2 0 0 1 1.55.43 2.89 2.89 0 0 1 .36 1.74v33.89a5.62 5.62 0 0 1 -.3 2.17 1.63 1.63 0 0 1 -1.15.89 11.39 11.39 0 0 1 -2.76.23v2.18h18.23v-2.17a4.7 4.7 0 0 1 -2.9-.59q-.66-.59-.66-2.7z"/><path d="m287.1 42.48a3.7 3.7 0 0 1 -1.77.36 1.14 1.14 0 0 1 -1.12-.72 8.22 8.22 0 0 1 -.33-2.9v-14.41c0-3.69-.9-6.45-2.7-8.3s-4.67-2.76-8.62-2.76a26.57 26.57 0 0 0 -8.86 1.25 11.4 11.4 0 0 0 -5 3.06 5.77 5.77 0 0 0 -1.51 3.72 4.12 4.12 0 0 0 1.35 3 5 5 0 0 0 3.65 1.31 5.09 5.09 0 0 0 3.72-1.38 4.13 4.13 0 0 0 .49-5.73c0-.08-.14-.25-.29-.49a1.33 1.33 0 0 1 -.23-.76 1.38 1.38 0 0 1 .92-1.28 5.71 5.71 0 0 1 2.37-.43 3.61 3.61 0 0 1 3.26 1.35 8.08 8.08 0 0 1 .89 4.31v5.47q-8.62 1.58-13.47 4.51t-4.8 7.34q0 7.31 9.74 7.31a15.21 15.21 0 0 0 9.21-2.81 6.66 6.66 0 0 0 2.41 2 8.63 8.63 0 0 0 3.91.79 20 20 0 0 0 4.38-.46 12.08 12.08 0 0 0 3.92-1.72l-.79-2a6 6 0 0 1 -.73.37zm-13.75-1.28a7 7 0 0 1 -4 1.58 3.52 3.52 0 0 1 -2.83-1.09 5.82 5.82 0 0 1 -.92-3.72 6.66 6.66 0 0 1 1.84-4.77 13.62 13.62 0 0 1 5.91-3.2z"/><path d="m345 42.12a6.29 6.29 0 0 1 -.3-2.12v-15.46c0-3.81-.92-6.57-2.76-8.26s-4.5-2.53-8-2.53a13.9 13.9 0 0 0 -6.19 1.25 9.39 9.39 0 0 0 -4 3.78 7.39 7.39 0 0 0 -3.33-3.68 11.86 11.86 0 0 0 -5.89-1.32 12.9 12.9 0 0 0 -6.15 1.32 15.41 15.41 0 0 0 -4.38 3.45v-4.34h-3.48l-10.92 1.71v2.17h2.31a2 2 0 0 1 1.54.43 2.84 2.84 0 0 1 .37 1.75v19.73a5.62 5.62 0 0 1 -.3 2.17 1.63 1.63 0 0 1 -1.15.89 11.43 11.43 0 0 1 -2.77.23v2.18h18.24v-2.17a4.7 4.7 0 0 1 -2.9-.59q-.66-.59-.66-2.7v-19.28a16.26 16.26 0 0 1 2.87-2.41 4.93 4.93 0 0 1 2.6-.69 3.63 3.63 0 0 1 3.19 1.58c.72 1.06 1.08 2.83 1.08 5.33v15.8a6.7 6.7 0 0 1 -.19 1.91 1.26 1.26 0 0 1 -.86.82 6.72 6.72 0 0 1 -2.1.23v2.18h17v-2.18a6.88 6.88 0 0 1 -2.27-.26 1.45 1.45 0 0 1 -.92-.92 7.07 7.07 0 0 1 -.23-2.11v-17.11a7.59 7.59 0 0 1 1.78-3.85 4.44 4.44 0 0 1 3.42-1.42 3.92 3.92 0 0 1 3.36 1.62c.79 1.07 1.18 2.84 1.18 5.29v15.8a3.38 3.38 0 0 1 -.59 2.4 4.22 4.22 0 0 1 -2.7.56v2.18h17.58v-2.18a8.39 8.39 0 0 1 -2.48-.3 1.59 1.59 0 0 1 -1-.88z"/><path d="m384.49 17.73q-3.47-4-9.64-4a12.57 12.57 0 0 0 -5.3 1 15.73 15.73 0 0 0 -4.12 2.83h-.06v-3.35h-3.49l-10.88 1.71v2.17h2.3a2.06 2.06 0 0 1 1.55.43 2.93 2.93 0 0 1 .36 1.75v32.91a5.65 5.65 0 0 1 -.3 2.17 1.63 1.63 0 0 1 -1.15.89 11.93 11.93 0 0 1 -2.76.23v2.17h18.23v-2.17a4.77 4.77 0 0 1 -2.9-.59c-.44-.4-.65-1.3-.65-2.7v-7.83a16.72 16.72 0 0 0 5.66.92q7.83 0 12.21-4.41t4.37-12.58q.02-7.56-3.43-11.55zm-8.13 20.67a8.65 8.65 0 0 1 -1.88 4.34 4.52 4.52 0 0 1 -3.48 1.35 7.45 7.45 0 0 1 -5.33-2.5v-21.26q2.63-3.22 5.39-3.22c2.07 0 3.56 1.11 4.48 3.35s1.46 5.47 1.46 9.68a45.3 45.3 0 0 1 -.64 8.26z"/><path d="m242.7 14.21.04-.03-.05.03z"/><path d="m250.44 43a1.55 1.55 0 0 1 -1.05-.92 6 6 0 0 1 -.27-2.11v-15.43c0-5.76-2.16-9.17-6.4-10.32l-5.86 4.22-3.54 2.56.7.86a13.66 13.66 0 0 1 1.33-.9c2-1.18 2.7-.5 2.92 0a14.52 14.52 0 0 1 .39 3.61v15.8a6.62 6.62 0 0 1 -.2 1.91 1.26 1.26 0 0 1 -.86.82 6.72 6.72 0 0 1 -2.1.23v2.18h17.44v-2.21a8.48 8.48 0 0 1 -2.5-.3z"/><path d="m14.56 40q-2.25-5.2-2.24-16.31v-20.77a18.3 18.3 0 0 0 -6.49 4.08q-5.83 5.84-5.83 16.69t5.83 16.65q5.82 5.79 16.55 5.8c1 0 2 0 2.89-.13v-1.24a9.42 9.42 0 0 1 -2.89.44 7.93 7.93 0 0 1 -7.82-5.21z"/><path d="m38.94 7q-5.84-5.76-16.56-5.76c-1 0-2 .05-2.89.12v1.25a9.42 9.42 0 0 1 2.89-.44 7.52 7.52 0 0 1 5 1.78 10 10 0 0 1 2.62 3.57q2.37 5.21 2.43 15.64v21.3a18.32 18.32 0 0 0 6.5-4.12q5.82-5.79 5.82-16.65t-5.81-16.69z"/></g></svg>