<svg height="99.466667" viewBox="0 0 485.66666 99.466667" width="485.66666" xmlns="http://www.w3.org/2000/svg"><g transform="matrix(.13333333 0 0 -.13333333 0 99.466667)"><g fill="#484a4c"><path d="m1473.52 624.227h56.74v-370.516c0-98.117 63.26-157.293 161.38-157.293 98.07 0 162.13 59.176 162.13 158.902v368.907h55.95v-371.317c0-126.492-88.36-208.3787-217.28-208.3787-129.73 0-218.92 81.8867-218.92 208.3787z"/><path d="m2217.07 471.801c99.72 0 149.18-58.375 149.18-58.375l-28.37-41.348s-45.41 49.461-119.18 49.461c-89.18 0-158.91-66.492-158.91-163.777 0-95.664 70.53-163.7776 160.53-163.7776 82.69 0 130.52 57.5586 130.52 57.5586l25.14-42.98s-55.14-64.0317-158.91-64.0317c-120.81 0-214.05 86.7457-214.05 213.2307 0 125.66 94.05 214.039 214.05 214.039"/><path d="m2474.94 410.996h-51.09v46.215h51.09v19.461c0 134.582 94.86 151.609 141.07 151.609 15.4 0 25.12-1.617 25.12-1.617v-49.457s-8.1 1.617-19.44 1.617c-31.63 0-91.61-11.347-91.61-102.152v-19.461h104.58v-46.215h-104.58v-356.7304h-55.14z"/><path d="m2686.57 462.07h55.14v-407.8044h-55.14zm-1.61 162.157h57.55v-68.911h-57.55z"/><path d="m2854.41 462.07h54.34v-72.16c0-17.832-1.64-32.43-1.64-32.43h1.64c19.45 61.625 64.85 108.649 128.91 108.649 11.33 0 21.89-2.434 21.89-2.434v-54.324s-9.74 1.625-20.28 1.625c-57.56 0-100.52-45.402-118.36-105.402-8.11-25.938-11.36-53.504-11.36-79.453v-171.8754h-55.14z"/><path d="m3119.56 143.426s45.42-49.4416 121.62-49.4416c43.8 0 81.89 21.8826 81.89 64.8636 0 89.179-219.71 67.293-219.71 200.257 0 72.973 65.67 112.696 139.45 112.696 85.94 0 125.66-44.59 125.66-44.59l-25.14-42.164s-34.85 37.297-102.15 37.297c-41.35 0-81.07-17.832-81.07-63.239 0-89.996 219.71-65.679 219.71-200.257 0-66.4847-57.57-114.3167-139.46-114.3167-98.9 0-150.79 59.1677-150.79 59.1677z"/><path d="m3477.15 410.996h-53.51v46.215h54.31v117.562h54.34v-117.562h102.14v-46.215h-102.14v-202.703c0-95.664 60.8-107.816 91.61-107.816 11.34 0 18.63 1.621 18.63 1.621v-49.4808s-8.91-1.6016-23.49-1.6016c-47.03 0-141.89 15.4024-141.89 151.6134z"/></g><path d="m1205.96 596.785 43.06 74.617 43.11 74.582h-172.33l43.09-74.582z" fill="#6fc62d"/><path d="m1119.81 745.984-43.03-74.582-43.1-74.617h172.29l-43.07 74.617z" fill="#2e9048"/><path d="m1033.68 596.785 43.1 74.617 43.03 74.582h-172.271l43.074-74.582z" fill="#58c14b"/><path d="m947.539 745.984-43.07-74.582-43.067-74.617h172.278l-43.067 74.617z" fill="#80cc29"/><path d="m861.402 596.785 43.067 74.617 43.07 74.582h-172.273l43.078-74.582z" fill="#3baa9b"/><path d="m775.266 745.984-43.078-74.582-43.043-74.617h172.257l-43.058 74.617z" fill="#4ec2a8"/><path d="m689.145 596.785 43.043 74.617 43.078 74.582h-172.278l43.063-74.582z" fill="#4fa9e1"/><path d="m602.988 745.984-43.062-74.582-43.094-74.617h172.313l-43.094 74.617z" fill="#4299d4"/><path d="m516.832 596.785 43.094 74.617 43.062 74.582h-172.297l43.098-74.582z" fill="#3972c1"/><path d="m430.691 745.984-43.019-74.582-43.098-74.617h172.258l-43.043 74.617z" fill="#2b398e"/><path d="m1119.81 447.59 43.09 74.613 43.07 74.582h-172.29l43.1-74.582z" fill="#60a531"/><path d="m1033.68 596.785-43.067-74.582-43.074-74.613h172.271l-43.03 74.613z" fill="#95d44b"/><path d="m775.266 447.59 43.078 74.613 43.058 74.582h-172.257l43.043-74.582z" fill="#59c8f3"/><path d="m689.145 596.785-43.094-74.582-43.063-74.613h172.278l-43.078 74.613z" fill="#3baa9b"/><path d="m430.691 447.59 43.098 74.613 43.043 74.582h-172.258l43.098-74.582z" fill="#4858b0"/><path d="m344.574 596.785-43.066-74.582-43.07-74.613h172.253l-43.019 74.613z" fill="#4443a2"/><path d="m1033.68 298.398 43.1 74.61 43.03 74.582h-172.271l43.074-74.582z" fill="#b8de2e"/><path d="m947.539 447.59-43.07-74.582-43.067-74.61h172.278l-43.067 74.61z" fill="#b6c82a"/><path d="m689.145 298.398 43.043 74.61 43.078 74.582h-172.278l43.063-74.582z" fill="#3988bd"/><path d="m602.988 447.59-43.062-74.582-43.094-74.61h172.313l-43.094 74.61z" fill="#3972c1"/><path d="m344.574 298.398 43.098 74.61 43.019 74.582h-172.253l43.07-74.582z" fill="#7061b6"/><path d="m258.438 447.59-43.083-74.582-43.074-74.61h172.293l-43.066 74.61z" fill="#563198"/><path d="m947.539 149.199 43.074 74.578 43.067 74.621h-172.278l43.067-74.621z" fill="#dce932"/><path d="m861.402 298.398-43.058-74.621-43.078-74.578h172.273l-43.07 74.578z" fill="#f8be18"/><path d="m258.438 149.199 43.07 74.578 43.066 74.621h-172.293l43.074-74.621z" fill="#7a319b"/><path d="m172.281 298.398-43.062-74.621-43.0979-74.578h172.3169l-43.083 74.578z" fill="#9d37a1"/><path d="m86.1211 149.18-43.0391-74.5823-43.082-74.5781687h172.281l-43.062 74.5781687z" fill="#ab1a3f"/><path d="m861.402 0 43.067 74.5781 43.07 74.6209h-172.273l43.078-74.6209z" fill="#f58022"/><path d="m775.266 149.199-43.078-74.6209-43.043-74.5781h172.257l-43.058 74.5781z" fill="#f36326"/><path d="m689.145 0 43.043 74.5781 43.078 74.6209h-172.278l43.063-74.6209z" fill="#c8472c"/><path d="m602.988 149.199-43.062-74.6209-43.094-74.5781h172.313l-43.094 74.5781z" fill="#ef3039"/><path d="m516.832 0 43.094 74.5781 43.062 74.6209h-172.297l43.098-74.6209z" fill="#ee2631"/><path d="m430.691 149.199-43.019-74.6209-43.098-74.5781h172.258l-43.043 74.5781z" fill="#c91c4b"/><path d="m344.574 0 43.098 74.5781 43.019 74.6209h-172.253l43.07-74.6209z" fill="#e65366"/><path d="m258.438 149.199-43.083-74.6209-43.074-74.5781h172.293l-43.066 74.5781z" fill="#e11c64"/><path d="m172.281 0 43.074 74.5781 43.083 74.6209h-172.3169l43.0979-74.6209z" fill="#c81c4a"/></g></svg>