<?xml version="1.0" encoding="UTF-8" standalone="no"?>
<svg
   xmlns:dc="http://purl.org/dc/elements/1.1/"
   xmlns:cc="http://creativecommons.org/ns#"
   xmlns:rdf="http://www.w3.org/1999/02/22-rdf-syntax-ns#"
   xmlns:svg="http://www.w3.org/2000/svg"
   xmlns="http://www.w3.org/2000/svg"
   viewBox="0 0 485.66666 99.466667"
   height="99.466667"
   width="485.66666"
   xml:space="preserve"
   id="svg2"
   version="1.1"><metadata
     id="metadata8"><rdf:RDF><cc:Work
         rdf:about=""><dc:format>image/svg+xml</dc:format><dc:type
           rdf:resource="http://purl.org/dc/dcmitype/StillImage" /></cc:Work></rdf:RDF></metadata><defs
     id="defs6" /><g
     transform="matrix(1.3333333,0,0,-1.3333333,0,99.466667)"
     id="g10"><g
       transform="scale(0.1)"
       id="g12"><path
         id="path14"
         style="fill:#484a4c;fill-opacity:1;fill-rule:nonzero;stroke:none"
         d="m 1473.52,624.227 h 56.74 V 253.711 c 0,-98.117 63.26,-157.293 161.38,-157.293 98.07,0 162.13,59.176 162.13,158.902 v 368.907 h 55.95 V 252.91 c 0,-126.492 -88.36,-208.3787 -217.28,-208.3787 -129.73,0 -218.92,81.8867 -218.92,208.3787 v 371.317" /><path
         id="path16"
         style="fill:#484a4c;fill-opacity:1;fill-rule:nonzero;stroke:none"
         d="m 2217.07,471.801 c 99.72,0 149.18,-58.375 149.18,-58.375 l -28.37,-41.348 c 0,0 -45.41,49.461 -119.18,49.461 -89.18,0 -158.91,-66.492 -158.91,-163.777 0,-95.664 70.53,-163.7776 160.53,-163.7776 82.69,0 130.52,57.5586 130.52,57.5586 l 25.14,-42.98 c 0,0 -55.14,-64.0317 -158.91,-64.0317 -120.81,0 -214.05,86.7457 -214.05,213.2307 0,125.66 94.05,214.039 214.05,214.039" /><path
         id="path18"
         style="fill:#484a4c;fill-opacity:1;fill-rule:nonzero;stroke:none"
         d="m 2474.94,410.996 h -51.09 v 46.215 h 51.09 v 19.461 c 0,134.582 94.86,151.609 141.07,151.609 15.4,0 25.12,-1.617 25.12,-1.617 v -49.457 c 0,0 -8.1,1.617 -19.44,1.617 -31.63,0 -91.61,-11.347 -91.61,-102.152 v -19.461 h 104.58 V 410.996 H 2530.08 V 54.2656 h -55.14 V 410.996" /><path
         id="path20"
         style="fill:#484a4c;fill-opacity:1;fill-rule:nonzero;stroke:none"
         d="m 2686.57,462.07 h 55.14 V 54.2656 h -55.14 z m -1.61,162.157 h 57.55 v -68.911 h -57.55 v 68.911" /><path
         id="path22"
         style="fill:#484a4c;fill-opacity:1;fill-rule:nonzero;stroke:none"
         d="m 2854.41,462.07 h 54.34 v -72.16 c 0,-17.832 -1.64,-32.43 -1.64,-32.43 h 1.64 c 19.45,61.625 64.85,108.649 128.91,108.649 11.33,0 21.89,-2.434 21.89,-2.434 v -54.324 c 0,0 -9.74,1.625 -20.28,1.625 -57.56,0 -100.52,-45.402 -118.36,-105.402 -8.11,-25.938 -11.36,-53.504 -11.36,-79.453 V 54.2656 h -55.14 V 462.07" /><path
         id="path24"
         style="fill:#484a4c;fill-opacity:1;fill-rule:nonzero;stroke:none"
         d="m 3119.56,143.426 c 0,0 45.42,-49.4416 121.62,-49.4416 43.8,0 81.89,21.8826 81.89,64.8636 0,89.179 -219.71,67.293 -219.71,200.257 0,72.973 65.67,112.696 139.45,112.696 85.94,0 125.66,-44.59 125.66,-44.59 l -25.14,-42.164 c 0,0 -34.85,37.297 -102.15,37.297 -41.35,0 -81.07,-17.832 -81.07,-63.239 0,-89.996 219.71,-65.679 219.71,-200.257 0,-66.4847 -57.57,-114.3167 -139.46,-114.3167 -98.9,0 -150.79,59.1677 -150.79,59.1677 l 29.99,39.727" /><path
         id="path26"
         style="fill:#484a4c;fill-opacity:1;fill-rule:nonzero;stroke:none"
         d="m 3477.15,410.996 h -53.51 v 46.215 h 54.31 v 117.562 h 54.34 V 457.211 h 102.14 V 410.996 H 3532.29 V 208.293 c 0,-95.664 60.8,-107.816 91.61,-107.816 11.34,0 18.63,1.621 18.63,1.621 V 52.6172 c 0,0 -8.91,-1.6016 -23.49,-1.6016 -47.03,0 -141.89,15.4024 -141.89,151.6134 v 208.367" /><path
         id="path28"
         style="fill:#6fc62d;fill-opacity:1;fill-rule:nonzero;stroke:none"
         d="m 1205.96,596.785 43.06,74.617 43.11,74.582 H 1119.8 l 43.09,-74.582 43.07,-74.617" /><path
         id="path30"
         style="fill:#2e9048;fill-opacity:1;fill-rule:nonzero;stroke:none"
         d="m 1119.81,745.984 -43.03,-74.582 -43.1,-74.617 h 172.29 l -43.07,74.617 -43.09,74.582" /><path
         id="path32"
         style="fill:#58c14b;fill-opacity:1;fill-rule:nonzero;stroke:none"
         d="m 1033.68,596.785 43.1,74.617 43.03,74.582 H 947.539 l 43.074,-74.582 43.067,-74.617" /><path
         id="path34"
         style="fill:#80cc29;fill-opacity:1;fill-rule:nonzero;stroke:none"
         d="m 947.539,745.984 -43.07,-74.582 -43.067,-74.617 h 172.278 l -43.067,74.617 -43.074,74.582" /><path
         id="path36"
         style="fill:#3baa9b;fill-opacity:1;fill-rule:nonzero;stroke:none"
         d="m 861.402,596.785 43.067,74.617 43.07,74.582 H 775.266 l 43.078,-74.582 43.058,-74.617" /><path
         id="path38"
         style="fill:#4ec2a8;fill-opacity:1;fill-rule:nonzero;stroke:none"
         d="m 775.266,745.984 -43.078,-74.582 -43.043,-74.617 h 172.257 l -43.058,74.617 -43.078,74.582" /><path
         id="path40"
         style="fill:#4fa9e1;fill-opacity:1;fill-rule:nonzero;stroke:none"
         d="m 689.145,596.785 43.043,74.617 43.078,74.582 H 602.988 l 43.063,-74.582 43.094,-74.617" /><path
         id="path42"
         style="fill:#4299d4;fill-opacity:1;fill-rule:nonzero;stroke:none"
         d="m 602.988,745.984 -43.062,-74.582 -43.094,-74.617 h 172.313 l -43.094,74.617 -43.063,74.582" /><path
         id="path44"
         style="fill:#3972c1;fill-opacity:1;fill-rule:nonzero;stroke:none"
         d="m 516.832,596.785 43.094,74.617 43.062,74.582 H 430.691 l 43.098,-74.582 43.043,-74.617" /><path
         id="path46"
         style="fill:#2b398e;fill-opacity:1;fill-rule:nonzero;stroke:none"
         d="m 430.691,745.984 -43.019,-74.582 -43.098,-74.617 h 172.258 l -43.043,74.617 -43.098,74.582" /><path
         id="path48"
         style="fill:#60a531;fill-opacity:1;fill-rule:nonzero;stroke:none"
         d="m 1119.81,447.59 43.09,74.613 43.07,74.582 h -172.29 l 43.1,-74.582 43.03,-74.613" /><path
         id="path50"
         style="fill:#95d44b;fill-opacity:1;fill-rule:nonzero;stroke:none"
         d="M 1033.68,596.785 990.613,522.203 947.539,447.59 h 172.271 l -43.03,74.613 -43.1,74.582" /><path
         id="path52"
         style="fill:#59c8f3;fill-opacity:1;fill-rule:nonzero;stroke:none"
         d="m 775.266,447.59 43.078,74.613 43.058,74.582 H 689.145 l 43.043,-74.582 43.078,-74.613" /><path
         id="path54"
         style="fill:#3baa9b;fill-opacity:1;fill-rule:nonzero;stroke:none"
         d="M 689.145,596.785 646.051,522.203 602.988,447.59 h 172.278 l -43.078,74.613 -43.043,74.582" /><path
         id="path56"
         style="fill:#4858b0;fill-opacity:1;fill-rule:nonzero;stroke:none"
         d="m 430.691,447.59 43.098,74.613 43.043,74.582 H 344.574 l 43.098,-74.582 43.019,-74.613" /><path
         id="path58"
         style="fill:#4443a2;fill-opacity:1;fill-rule:nonzero;stroke:none"
         d="m 344.574,596.785 -43.066,-74.582 -43.07,-74.613 h 172.253 l -43.019,74.613 -43.098,74.582" /><path
         id="path60"
         style="fill:#b8de2e;fill-opacity:1;fill-rule:nonzero;stroke:none"
         d="m 1033.68,298.398 43.1,74.61 43.03,74.582 H 947.539 l 43.074,-74.582 43.067,-74.61" /><path
         id="path62"
         style="fill:#b6c82a;fill-opacity:1;fill-rule:nonzero;stroke:none"
         d="m 947.539,447.59 -43.07,-74.582 -43.067,-74.61 h 172.278 l -43.067,74.61 -43.074,74.582" /><path
         id="path64"
         style="fill:#3988bd;fill-opacity:1;fill-rule:nonzero;stroke:none"
         d="m 689.145,298.398 43.043,74.61 43.078,74.582 H 602.988 l 43.063,-74.582 43.094,-74.61" /><path
         id="path66"
         style="fill:#3972c1;fill-opacity:1;fill-rule:nonzero;stroke:none"
         d="m 602.988,447.59 -43.062,-74.582 -43.094,-74.61 h 172.313 l -43.094,74.61 -43.063,74.582" /><path
         id="path68"
         style="fill:#7061b6;fill-opacity:1;fill-rule:nonzero;stroke:none"
         d="m 344.574,298.398 43.098,74.61 43.019,74.582 H 258.438 l 43.07,-74.582 43.066,-74.61" /><path
         id="path70"
         style="fill:#563198;fill-opacity:1;fill-rule:nonzero;stroke:none"
         d="m 258.438,447.59 -43.083,-74.582 -43.074,-74.61 h 172.293 l -43.066,74.61 -43.07,74.582" /><path
         id="path72"
         style="fill:#dce932;fill-opacity:1;fill-rule:nonzero;stroke:none"
         d="m 947.539,149.199 43.074,74.578 43.067,74.621 H 861.402 l 43.067,-74.621 43.07,-74.578" /><path
         id="path74"
         style="fill:#f8be18;fill-opacity:1;fill-rule:nonzero;stroke:none"
         d="m 861.402,298.398 -43.058,-74.621 -43.078,-74.578 h 172.273 l -43.07,74.578 -43.067,74.621" /><path
         id="path76"
         style="fill:#7a319b;fill-opacity:1;fill-rule:nonzero;stroke:none"
         d="m 258.438,149.199 43.07,74.578 43.066,74.621 H 172.281 l 43.074,-74.621 43.083,-74.578" /><path
         id="path78"
         style="fill:#9d37a1;fill-opacity:1;fill-rule:nonzero;stroke:none"
         d="M 172.281,298.398 129.219,223.777 86.1211,149.199 H 258.438 l -43.083,74.578 -43.074,74.621" /><path
         id="path80"
         style="fill:#ab1a3f;fill-opacity:1;fill-rule:nonzero;stroke:none"
         d="M 86.1211,149.18 43.082,74.5977 0,0.0195313 H 172.281 L 129.219,74.5977 86.1211,149.18" /><path
         id="path82"
         style="fill:#f58022;fill-opacity:1;fill-rule:nonzero;stroke:none"
         d="m 861.402,0 43.067,74.5781 43.07,74.6209 H 775.266 L 818.344,74.5781 861.402,0" /><path
         id="path84"
         style="fill:#f36326;fill-opacity:1;fill-rule:nonzero;stroke:none"
         d="M 775.266,149.199 732.188,74.5781 689.145,0 h 172.257 l -43.058,74.5781 -43.078,74.6209" /><path
         id="path86"
         style="fill:#c8472c;fill-opacity:1;fill-rule:nonzero;stroke:none"
         d="m 689.145,0 43.043,74.5781 43.078,74.6209 H 602.988 L 646.051,74.5781 689.145,0" /><path
         id="path88"
         style="fill:#ef3039;fill-opacity:1;fill-rule:nonzero;stroke:none"
         d="M 602.988,149.199 559.926,74.5781 516.832,0 h 172.313 l -43.094,74.5781 -43.063,74.6209" /><path
         id="path90"
         style="fill:#ee2631;fill-opacity:1;fill-rule:nonzero;stroke:none"
         d="m 516.832,0 43.094,74.5781 43.062,74.6209 H 430.691 L 473.789,74.5781 516.832,0" /><path
         id="path92"
         style="fill:#c91c4b;fill-opacity:1;fill-rule:nonzero;stroke:none"
         d="M 430.691,149.199 387.672,74.5781 344.574,0 h 172.258 l -43.043,74.5781 -43.098,74.6209" /><path
         id="path94"
         style="fill:#e65366;fill-opacity:1;fill-rule:nonzero;stroke:none"
         d="m 344.574,0 43.098,74.5781 43.019,74.6209 H 258.438 L 301.508,74.5781 344.574,0" /><path
         id="path96"
         style="fill:#e11c64;fill-opacity:1;fill-rule:nonzero;stroke:none"
         d="M 258.438,149.199 215.355,74.5781 172.281,0 h 172.293 l -43.066,74.5781 -43.07,74.6209" /><path
         id="path98"
         style="fill:#c81c4a;fill-opacity:1;fill-rule:nonzero;stroke:none"
         d="m 172.281,0 43.074,74.5781 43.083,74.6209 H 86.1211 L 129.219,74.5781 172.281,0" /></g></g></svg>